<?xml version="1.0" encoding="UTF-8"?>
<svg version="1.1" xmlns="http://www.w3.org/2000/svg" width="500" height="500">
<path d="M0 0 C0.97259766 -0.00386719 1.94519531 -0.00773437 2.94726562 -0.01171875 C19.33284494 0.01017247 19.33284494 0.01017247 23.5625 2.125 C23.5625 3.115 23.5625 4.105 23.5625 5.125 C22.81226563 5.4653125 22.06203125 5.805625 21.2890625 6.15625 C4.11749754 14.2878727 -7.7749936 26.37539207 -14.22767639 44.32278442 C-17.42521396 55.06008126 -16.89797391 66.05833509 -16.9140625 77.16015625 C-16.92840571 79.40678322 -16.94416855 81.65340152 -16.96127319 83.90000916 C-17.00295799 89.79611476 -17.02804807 95.69216674 -17.04876709 101.58837891 C-17.08466801 110.99729157 -17.14634801 120.4060704 -17.20725632 129.81484795 C-17.22603428 133.06862764 -17.23798914 136.32237211 -17.24868774 139.57618713 C-17.28853527 149.03212868 -17.39069055 158.48595792 -17.76318359 167.93530273 C-17.7848591 168.7244233 -17.80653461 169.51354387 -17.82886696 170.32657719 C-18.08105603 175.62444945 -18.08105603 175.62444945 -19.83120728 178.08216858 C-22.10919967 179.56107838 -23.71570621 179.99539077 -26.4375 180.125 C-29.92384601 178.50344371 -31.28052194 177.36046708 -33.4375 174.125 C-33.66455078 172.0402832 -33.66455078 172.0402832 -33.6328125 169.67578125 C-33.62636719 168.82822266 -33.61992187 167.98066406 -33.61328125 167.10742188 C-33.59652344 166.22634766 -33.57976562 165.34527344 -33.5625 164.4375 C-33.55347656 163.54482422 -33.54445312 162.65214844 -33.53515625 161.73242188 C-33.51159748 159.52967686 -33.47870329 157.32747412 -33.4375 155.125 C-35.7475 155.125 -38.0575 155.125 -40.4375 155.125 C-40.42589844 156.30835938 -40.41429687 157.49171875 -40.40234375 158.7109375 C-40.24441538 181.33537307 -40.24441538 181.33537307 -43.4375 186.125 C-48.91408795 187.56148208 -48.91408795 187.56148208 -51.4375 187.125 C-54.1873468 185.48370967 -55.05181738 184.90047401 -56.4375 182.125 C-57.05899582 177.50762683 -56.90630014 172.96062575 -56.75 168.3125 C-56.72744141 167.04728516 -56.70488281 165.78207031 -56.68164062 164.47851562 C-56.62279078 161.35947381 -56.5406137 158.24284098 -56.4375 155.125 C-58.43704746 155.08245644 -60.43791636 155.08419217 -62.4375 155.125 C-64.5652831 157.2527831 -63.57467503 162.09823468 -63.578125 165.05078125 C-63.59645419 166.89779878 -63.6160246 168.74480433 -63.63671875 170.59179688 C-63.66569879 173.51509725 -63.68750002 176.4376306 -63.68798828 179.36108398 C-63.69131979 182.17501517 -63.72585517 184.98715971 -63.765625 187.80078125 C-63.7585553 188.67382401 -63.7514856 189.54686676 -63.74420166 190.44636536 C-63.86604306 196.51283348 -63.86604306 196.51283348 -66.81933594 199.67651367 C-69.76761536 201.30763469 -71.13669654 201.80208789 -74.4375 201.125 C-77.07264813 199.03979185 -78.29879208 197.85007512 -78.93807125 194.50833797 C-78.93838518 193.00881006 -78.93838518 193.00881006 -78.93870544 191.47898865 C-78.95345665 189.75285591 -78.95345665 189.75285591 -78.96850586 187.99185181 C-78.95883789 186.73311249 -78.94916992 185.47437317 -78.93920898 184.17749023 C-78.94299321 182.83515354 -78.94849411 181.49282075 -78.95558167 180.15049744 C-78.96954978 176.50531802 -78.95835319 172.86061 -78.94187045 169.21545672 C-78.92800542 165.39290684 -78.93448244 161.57038396 -78.93800354 157.74781799 C-78.94070682 151.32097809 -78.92722797 144.89432478 -78.90405273 138.4675293 C-78.87752135 131.059229 -78.87567017 123.65124224 -78.8874411 116.2429108 C-78.89826532 109.09990431 -78.89199045 101.95701016 -78.87788582 94.81401253 C-78.87215812 91.78358333 -78.87218338 88.75323723 -78.87695122 85.72280693 C-78.88176453 82.14154073 -78.87144168 78.56061229 -78.84999657 74.97941017 C-78.8418775 73.05523918 -78.84823429 71.13102368 -78.85519409 69.20684814 C-78.79182157 61.71771106 -77.80037452 55.22936221 -75.4375 48.125 C-75.16828452 47.27966926 -74.89906904 46.43433851 -74.62169552 45.56339169 C-69.12128749 28.98257341 -55.36885437 16.18620519 -40.4375 8.125 C-27.09594448 1.73722493 -14.65773111 -0.05805042 0 0 Z " fill="#0D7AB2" transform="translate(240.4375,104.875)"/>
<path d="M0 0 C0 1.32 0 2.64 0 4 C-1.94140625 5.640625 -1.94140625 5.640625 -4.5625 7.25 C-15.41576262 14.49061103 -21.84091573 24.68779703 -24.58215714 37.45227814 C-25.30412791 41.85436535 -25.27467529 46.22143017 -25.25537109 50.67285156 C-25.26080177 52.21359344 -25.26080177 52.21359344 -25.26634216 53.78546143 C-25.27319941 56.00013597 -25.27574854 58.21482728 -25.27439499 60.42951202 C-25.27342521 63.93503668 -25.28642305 67.44025857 -25.30337524 70.94573975 C-25.34952867 80.9068372 -25.37427425 90.86790072 -25.38085938 100.82910156 C-25.38586757 106.93446678 -25.41007307 113.03951114 -25.44618607 119.14476776 C-25.455991 121.46838202 -25.45831226 123.79204035 -25.45301437 126.11566925 C-25.44596123 129.35903937 -25.46318767 132.60144743 -25.48583984 135.84472656 C-25.47766739 136.80378906 -25.46949493 137.76285156 -25.46107483 138.75097656 C-25.51431843 143.02963126 -25.60338092 145.36459159 -27.91201782 149.06317139 C-30.8110729 151.75235757 -33.31098625 152.65209113 -37 154 C-37.0093457 154.74572266 -37.01869141 155.49144531 -37.02832031 156.25976562 C-37.0823603 159.6738215 -37.16594304 163.08655655 -37.25 166.5 C-37.26417969 167.67304688 -37.27835937 168.84609375 -37.29296875 170.0546875 C-37.49166409 177.12824174 -38.15507186 182.00247858 -42 188 C-46.53113679 192.1096357 -51.02993161 193.0966378 -57 193 C-61.5979187 192.02736335 -64.71758329 190.36879609 -68 187 C-72.44674857 179.88923322 -72.5670401 172.96037684 -72.50170898 164.77612305 C-72.50711197 163.47735229 -72.51251495 162.17858154 -72.51808167 160.8404541 C-72.5319615 157.30086543 -72.52091795 153.76176698 -72.50437045 150.22220588 C-72.49043438 146.50025106 -72.49699004 142.77832226 -72.50050354 139.05635071 C-72.50319996 132.80482163 -72.48978272 126.55348517 -72.46655273 120.30200195 C-72.43998148 113.10208423 -72.43818689 105.90248906 -72.4499411 98.70253915 C-72.46077107 91.74586836 -72.45448885 84.78931283 -72.44038582 77.83265114 C-72.43466753 74.88678026 -72.43467568 71.94099489 -72.43945122 68.99512291 C-72.44516889 64.8672612 -72.42577787 60.73986907 -72.40405273 56.61206055 C-72.41080521 54.80446007 -72.41080521 54.80446007 -72.41769409 52.96034241 C-72.27608531 36.67007708 -67.42693529 23.11436929 -56.24609375 11.15625 C-40.48899736 -3.97056254 -20.18684647 -5.4699842 0 0 Z M-57 141 C-59.48613036 144.72919554 -59.25789522 146.69971556 -59.265625 151.15234375 C-59.26753845 151.84888565 -59.2694519 152.54542755 -59.27142334 153.26307678 C-59.272783 154.73487713 -59.26910182 156.20668956 -59.26074219 157.6784668 C-59.25005519 159.92589427 -59.260636 162.17251951 -59.2734375 164.41992188 C-59.27211555 165.85156426 -59.26955242 167.28320614 -59.265625 168.71484375 C-59.26336914 170.01542725 -59.26111328 171.31601074 -59.25878906 172.65600586 C-59.02033199 175.73727615 -58.63581318 177.43053873 -57 180 C-54.03 179.505 -54.03 179.505 -51 179 C-50.95063842 173.90968245 -50.91429895 168.81950357 -50.89013672 163.72900391 C-50.88006624 161.99655735 -50.86640911 160.26412784 -50.84912109 158.53173828 C-50.82491838 156.04455361 -50.81352761 153.55759325 -50.8046875 151.0703125 C-50.79436493 150.29317902 -50.78404236 149.51604553 -50.77340698 148.71536255 C-50.77300729 146.80874507 -50.8776786 144.90268964 -51 143 C-51.66 142.34 -52.32 141.68 -53 141 C-54.32 141 -55.64 141 -57 141 Z " fill="#53CBF8" transform="translate(303,118)"/>
<path d="M0 0 C8.74111753 9.40781294 14.31856395 25.07160253 14.27124023 37.74511719 C14.27646698 38.48615189 14.28169373 39.22718658 14.28707886 39.99067688 C14.29726739 41.59037935 14.30309022 43.1901145 14.30496025 44.78984833 C14.30865822 47.34135432 14.32548411 49.89248327 14.34571838 52.44390869 C14.40075702 59.69544359 14.43153512 66.94703578 14.45629883 74.19873047 C14.47240174 78.64846146 14.50286202 83.09793043 14.54106331 87.5475235 C14.55252969 89.22318942 14.55864201 90.8989027 14.55874443 92.57460785 C14.56032385 111.56113633 15.62371882 131.3308702 27.03955078 147.09301758 C28.94178279 149.81188004 30.02658062 151.4232811 29.87109375 154.796875 C28.72927289 157.68470893 27.83180142 158.69890205 25 160 C20.92687196 159.28846319 18.78433137 158.13151043 16.4453125 154.8125 C15.65446995 153.55242421 14.88131167 152.28109936 14.125 151 C13.7228125 150.35804688 13.320625 149.71609375 12.90625 149.0546875 C10 144.32955995 10 144.32955995 10 142 C8.02 142.33 6.04 142.66 4 143 C4.48578543 146.12290635 4.9986012 148.99580359 6 152 C6.39614654 157.24894167 5.86557317 160.55342094 3 165 C-1.5103446 169.07031098 -4.48380097 170.48367676 -10.484375 170.40625 C-15.72139259 169.56052045 -19.97517764 166.41217968 -23.34765625 162.39453125 C-28.49575925 154.15365154 -29.44665538 144.79500196 -29.41992188 135.31494141 C-29.42839142 134.1915889 -29.43686096 133.06823639 -29.44558716 131.9108429 C-29.46884651 128.22429861 -29.46998193 124.53817439 -29.46875 120.8515625 C-29.47585802 118.27143184 -29.48355795 115.69130275 -29.49182129 113.11117554 C-29.50524062 107.71306312 -29.50702897 102.31511289 -29.50097656 96.91699219 C-29.49433995 90.70586489 -29.51720051 84.49533206 -29.55429029 78.28432524 C-29.58885754 72.27429611 -29.59531074 66.26457942 -29.59120178 60.25443649 C-29.59288792 57.71328333 -29.60248129 55.17212196 -29.62034607 52.63103104 C-29.64264039 49.06816542 -29.63277907 45.50671111 -29.61523438 41.94384766 C-29.62849762 40.90866501 -29.64176086 39.87348236 -29.65542603 38.80693054 C-29.53292529 28.02549003 -25.22963418 17.09959015 -18 9 C-6.16780563 -0.85457548 -6.16780563 -0.85457548 0 0 Z M-17 129 C-17.97894606 144.27583761 -17.97894606 144.27583761 -12 158 C-10.35 158 -8.7 158 -7 158 C-5.74733417 154.46975992 -6.09865176 152.4158769 -7.4375 149.0625 C-9.45146643 143.69192286 -9.1485902 138.60879786 -8.91015625 132.94140625 C-8.66758238 129.87562495 -8.66758238 129.87562495 -11 128 C-14.7763932 127.7018576 -14.7763932 127.7018576 -17 129 Z " fill="#B7F3FC" transform="translate(314,127)"/>
<path d="M0 0 C2 2 2 2 2.23377991 4.43276978 C2.22632248 5.45736298 2.21886505 6.48195618 2.21118164 7.53759766 C2.20780289 8.70126862 2.20442413 9.86493958 2.20094299 11.06387329 C2.18748337 12.33443573 2.17402374 13.60499817 2.16015625 14.9140625 C2.15219969 16.92769515 2.14424945 18.94132784 2.13662624 20.95496178 C2.1234625 23.79644269 2.10130696 26.63782604 2.07904053 29.47924805 C2.03103042 35.70745229 1.99660577 41.93572105 1.97265625 48.1640625 C1.96997364 48.83698586 1.96729103 49.50990921 1.96452713 50.20322418 C1.93435567 59.46347609 2.06141607 68.70740467 2.43359375 77.9609375 C2.47307632 78.97249908 2.5125589 79.98406067 2.55323792 81.02627563 C2.3708826 85.34910868 2.3708826 85.34910868 4 89 C4.04063832 90.66617115 4.042721 92.33388095 4 94 C5.485 93.505 5.485 93.505 7 93 C7.99 93 8.98 93 10 93 C11.47685215 90.0462957 11.10142278 87.06633033 11.0625 83.83203125 C11.05871338 83.11899338 11.05492676 82.40595551 11.05102539 81.67131042 C11.03469829 78.61991331 11.00675637 75.56864998 10.97949219 72.51733398 C10.96127158 70.28890619 10.94925553 68.06050111 10.9375 65.83203125 C10.92920166 65.15259964 10.92090332 64.47316803 10.91235352 63.77314758 C10.89037816 59.42427175 11.13362408 55.26643631 12 51 C14.59965221 48.68919803 16.0930538 48.02212064 19.5625 47.9375 C23.00627033 49.43863066 24.62482627 51.5954598 26 55 C26.40670246 58.76683079 26.24210931 62.47082319 26.0625 66.25 C25.9772967 68.23383799 25.90501381 70.21828674 25.84765625 72.203125 C25.80648682 73.07614258 25.76531738 73.94916016 25.72290039 74.84863281 C25.8600647 75.91355957 25.8600647 75.91355957 26 77 C27.485 77.99 27.485 77.99 29 79 C29 79.66 29 80.32 29 81 C30.97536745 80.65213292 30.97536745 80.65213292 33 80 C34.27317422 77.45365155 34.15899911 75.57874155 34.2109375 72.73046875 C34.25347656 71.14975586 34.25347656 71.14975586 34.296875 69.53710938 C34.34868121 67.31591817 34.39303352 65.09453978 34.4296875 62.87304688 C34.47609375 61.2865332 34.47609375 61.2865332 34.5234375 59.66796875 C34.54325684 58.70141357 34.56307617 57.7348584 34.58349609 56.73901367 C35.07036515 53.53726457 36.11952025 51.615955 38 49 C39.875 48 39.875 48 42 48 C44.5546875 48.90625 44.5546875 48.90625 47 51 C47.90909311 54.12746535 48.06698827 57.2587659 48.25 60.5 C48.37770711 62.21893766 48.5078158 63.93769901 48.640625 65.65625 C48.68735352 66.41744141 48.73408203 67.17863281 48.78222656 67.96289062 C48.94804685 70.20012969 48.94804685 70.20012969 50 73 C50.99 73 51.98 73 53 73 C53.495 71.515 53.495 71.515 54 70 C55.32 70.33 56.64 70.66 58 71 C57.814375 70.0925 57.62875 69.185 57.4375 68.25 C57.01621343 65.12044261 57.22523138 63.92690368 58 61 C58.2143934 59.25309081 58.40107653 57.5025977 58.5625 55.75 C58.64628906 54.85796875 58.73007813 53.9659375 58.81640625 53.046875 C58.90728516 52.03367187 58.90728516 52.03367187 59 51 C58.34 51 57.68 51 57 51 C57.495 50.01 57.495 50.01 58 49 C58.14674003 47.42869361 58.23646616 45.85187971 58.29711914 44.27490234 C58.33708511 43.29403656 58.37705109 42.31317078 58.41822815 41.30258179 C58.47610756 39.71034286 58.47610756 39.71034286 58.53515625 38.0859375 C58.57813339 37.00116119 58.62111053 35.91638489 58.66539001 34.79873657 C58.80205112 31.32430952 58.93234346 27.84967622 59.0625 24.375 C59.15387841 22.0234212 59.24566993 19.67185842 59.33789062 17.3203125 C59.56339276 11.54705247 59.78366254 5.77361032 60 0 C60.33 0 60.66 0 61 0 C61.02570433 7.34252154 61.04301268 14.68503117 61.05493164 22.02758789 C61.0599092 24.51685011 61.06669366 27.00610949 61.07543945 29.49536133 C61.15695663 53.32235225 61.15695663 53.32235225 60.68359375 65.07421875 C60.66136246 65.84683548 60.63913116 66.61945221 60.6162262 67.41548157 C60.36120229 72.49725145 60.36120229 72.49725145 58.60571289 74.94067383 C56.33122235 76.44120819 54.72980258 76.8700094 52 77 C48.51365399 75.37844371 47.15697806 74.23546708 45 71 C44.77294922 68.9152832 44.77294922 68.9152832 44.8046875 66.55078125 C44.81113281 65.70322266 44.81757813 64.85566406 44.82421875 63.98242188 C44.84097656 63.10134766 44.85773438 62.22027344 44.875 61.3125 C44.88402344 60.41982422 44.89304688 59.52714844 44.90234375 58.60742188 C44.92590252 56.40467686 44.95879671 54.20247412 45 52 C42.69 52 40.38 52 38 52 C38.01160156 53.18335938 38.02320313 54.36671875 38.03515625 55.5859375 C38.19308462 78.21037307 38.19308462 78.21037307 35 83 C29.52341205 84.43648208 29.52341205 84.43648208 27 84 C24.2501532 82.35870967 23.38568262 81.77547401 22 79 C21.37850418 74.38262683 21.53119986 69.83562575 21.6875 65.1875 C21.71005859 63.92228516 21.73261719 62.65707031 21.75585938 61.35351562 C21.81470922 58.23447381 21.8968863 55.11784098 22 52 C20.00045254 51.95745644 17.99958364 51.95919217 16 52 C13.8722169 54.1277831 14.86282497 58.97323468 14.859375 61.92578125 C14.84104581 63.77279878 14.8214754 65.61980433 14.80078125 67.46679688 C14.77180121 70.39009725 14.74999998 73.3126306 14.74951172 76.23608398 C14.74618021 79.05001517 14.71164483 81.86215971 14.671875 84.67578125 C14.6789447 85.54882401 14.6860144 86.42186676 14.69329834 87.32136536 C14.57145694 93.38783348 14.57145694 93.38783348 11.61816406 96.55151367 C8.66988464 98.18263469 7.30080346 98.67708789 4 98 C1.61180745 96.35436452 0.20155241 95.0478732 -0.35944366 92.13124847 C-0.49399607 89.71757174 -0.49430767 87.3341734 -0.45410156 84.91699219 C-0.45468567 83.99957245 -0.45526978 83.08215271 -0.45587158 82.13693237 C-0.45308631 79.10652748 -0.42197308 76.07710792 -0.390625 73.046875 C-0.3831642 70.94509417 -0.37747051 68.84330638 -0.37347412 66.74151611 C-0.35820524 61.2109861 -0.31891228 55.68087661 -0.2746582 50.1505127 C-0.23373275 44.50664967 -0.21546891 38.86271866 -0.1953125 33.21875 C-0.15241952 22.14564862 -0.08415274 11.07285929 0 0 Z " fill="#3BC0EA" transform="translate(162,208)"/>
<path d="M0 0 C2.64 0 5.28 0 8 0 C8 11.88 8 23.76 8 36 C5.03 36 2.06 36 -1 36 C-2.485 36.495 -2.485 36.495 -4 37 C-9.70624783 37.53832527 -12.5555466 36.61757835 -17 33 C-19.63657218 29.04514173 -20.04702524 25.71036134 -20 21 C-18.7931719 16.66961682 -17.63872992 14.57931318 -14.3125 11.5625 C-10.08927264 9.57041162 -7.62690464 9.61442461 -3 10 C-2.34 10.33 -1.68 10.66 -1 11 C-1.01160156 10.28972656 -1.02320313 9.57945312 -1.03515625 8.84765625 C-1.04417969 7.92855469 -1.05320313 7.00945312 -1.0625 6.0625 C-1.07410156 5.14597656 -1.08570313 4.22945313 -1.09765625 3.28515625 C-1 1 -1 1 0 0 Z M-10 19 C-10.91399027 22.5797952 -11.17841928 24.46474216 -10 28 C-6.59679066 28.67673447 -6.59679066 28.67673447 -3 29 C-0.64360592 27.06110754 -0.64360592 27.06110754 -0.625 23.5625 C-0.63185423 19.9821286 -0.63185423 19.9821286 -2.875 18.0625 C-6.29733535 16.35133233 -6.69734336 16.7982289 -10 19 Z " fill="#1B054B" transform="translate(244,334)"/>
<path d="M0 0 C3.09584403 1.57606605 4.22468291 3.04999529 5.5625 6.25 C3.875 8.3125 3.875 8.3125 1.5625 10.25 C-2.7375 9.95 -2.7375 9.95 -4.4375 8.25 C-6.47020562 8.01179079 -6.47020562 8.01179079 -8.8125 8 C-9.60398437 7.97421875 -10.39546875 7.9484375 -11.2109375 7.921875 C-13.4787337 8.09313451 -13.4787337 8.09313451 -15.21484375 9.44140625 C-16.86387164 11.8807031 -16.73861587 13.52135943 -16.625 16.4375 C-16.59792969 17.33855469 -16.57085937 18.23960937 -16.54296875 19.16796875 C-16.50816406 19.85503906 -16.47335938 20.54210937 -16.4375 21.25 C-14.06582181 22.86274117 -12.07951351 24.2133951 -9.4375 25.25 C-6.2368286 24.68326199 -6.2368286 24.68326199 -3.4375 23.25 C-1.3125 22.375 -1.3125 22.375 0.5625 22.25 C2.875 23.9375 2.875 23.9375 4.5625 26.25 C4.625 28.3125 4.625 28.3125 3.5625 30.25 C-1.62264801 34.03375665 -6.09189531 34.67304031 -12.4375 34.25 C-18.65275968 32.8557022 -21.83160022 30.44673793 -25.4375 25.25 C-27.93712173 20.91086791 -28.07570155 17.1617284 -27.4375 12.25 C-25.58320775 6.03201402 -22.09391948 2.30787874 -16.4375 -0.75 C-10.78971116 -2.63259628 -5.43081268 -2.52711174 0 0 Z " fill="#201356" transform="translate(103.4375,336.75)"/>
<path d="M0 0 C2.64 0 5.28 0 8 0 C9.26026798 2.52053595 8.91874445 3.8542098 8.5625 6.625 C8.46066406 7.44226563 8.35882813 8.25953125 8.25390625 9.1015625 C8.17011719 9.72804688 8.08632813 10.35453125 8 11 C8.99 10.67 9.98 10.34 11 10 C15.97725826 9.6313142 19.04429615 9.83543692 23 13 C24.81184862 15.94081205 25.24166051 18.1171225 25.1953125 21.546875 C25.18886719 22.39121094 25.18242187 23.23554688 25.17578125 24.10546875 C25.15902344 24.97816406 25.14226562 25.85085938 25.125 26.75 C25.11597656 27.63816406 25.10695313 28.52632813 25.09765625 29.44140625 C25.07414577 31.62788058 25.04128499 33.81380094 25 36 C18.84765625 36.87890625 18.84765625 36.87890625 17 37 C14.94077598 34.94077598 15.58572421 30.78291876 15.4375 27.9375 C15.39431641 27.17888672 15.35113281 26.42027344 15.30664062 25.63867188 C15.20026367 23.75934562 15.09960066 21.87969756 15 20 C13.10820797 19.3185177 13.10820797 19.3185177 11 19 C8.67501482 20.87965924 8.67501482 20.87965924 8.83984375 23.96875 C8.87207031 25.1340625 8.90429688 26.299375 8.9375 27.5 C9.09789474 33.80421053 9.09789474 33.80421053 8 36 C5.36 36 2.72 36 0 36 C0 24.12 0 12.24 0 0 Z " fill="#261859" transform="translate(390,334)"/>
<path d="M0 0 C1.83834086 2.92289159 2.24157523 5.12343261 2.1953125 8.546875 C2.18886719 9.39121094 2.18242187 10.23554688 2.17578125 11.10546875 C2.15902344 11.97816406 2.14226562 12.85085938 2.125 13.75 C2.11597656 14.63816406 2.10695312 15.52632813 2.09765625 16.44140625 C2.07414577 18.62788058 2.04128499 20.81380094 2 23 C-4.625 24.125 -4.625 24.125 -8 23 C-9.11375 23.185625 -10.2275 23.37125 -11.375 23.5625 C-15.17646317 24.02129728 -16.7369932 23.90342064 -20 22 C-22.38125002 19.70086205 -22.94206985 18.34033963 -23.5 15.0625 C-23 12 -23 12 -21.125 9.1875 C-16.86857261 6.20800083 -13.0946377 6.1088175 -8 6 C-11.98196457 4.94595055 -14.98195309 5.15901344 -19 6 C-19.66 4.02 -20.32 2.04 -21 0 C-15.67971177 -5.32028823 -5.73424588 -3.91607035 0 0 Z M-13 12 C-13.33 13.32 -13.66 14.64 -14 16 C-10.41672247 17.00217064 -10.41672247 17.00217064 -7 16 C-7.33 14.68 -7.66 13.36 -8 12 C-9.65 12 -11.3 12 -13 12 Z " fill="#2A1D60" transform="translate(217,347)"/>
<path d="M0 0 C5.61971831 2.85915493 5.61971831 2.85915493 7 7 C7.0806622 8.48123547 7.10761193 9.96582204 7.09765625 11.44921875 C7.09443359 12.29677734 7.09121094 13.14433594 7.08789062 14.01757812 C7.07951172 14.89865234 7.07113281 15.77972656 7.0625 16.6875 C7.05798828 17.58017578 7.05347656 18.47285156 7.04882812 19.39257812 C7.03704983 21.59511987 7.02060164 23.79752599 7 26 C6.37351563 25.98839844 5.74703125 25.97679687 5.1015625 25.96484375 C3.87566406 25.95130859 3.87566406 25.95130859 2.625 25.9375 C1.40683594 25.92009766 1.40683594 25.92009766 0.1640625 25.90234375 C-2.04937142 25.85533666 -2.04937142 25.85533666 -4 27 C-7.65978542 27.27621022 -10.36334353 27.24051467 -13.8125 25.9375 C-16.87277321 23.2269723 -17.37994025 20.99594061 -18 17 C-17.375 14.1875 -17.375 14.1875 -16 12 C-11.84811966 9.4526673 -7.77128465 9.4209957 -3 9 C-6.63 9 -10.26 9 -14 9 C-14.66 7.02 -15.32 5.04 -16 3 C-10.76390389 -0.30700807 -6.0328396 -0.89954821 0 0 Z M-9 16 C-8.67 17.32 -8.34 18.64 -8 20 C-6.02 19.67 -4.04 19.34 -2 19 C-2 17.68 -2 16.36 -2 15 C-5.62885324 14.84850702 -5.62885324 14.84850702 -9 16 Z " fill="#19094D" transform="translate(129,344)"/>
<path d="M0 0 C2.67118567 2.33728746 3.85969389 4.39159543 4.22705078 7.94824219 C4.21657715 8.72329102 4.20610352 9.49833984 4.1953125 10.296875 C4.18886719 11.14121094 4.18242187 11.98554688 4.17578125 12.85546875 C4.15902344 13.72816406 4.14226562 14.60085938 4.125 15.5 C4.11597656 16.38816406 4.10695313 17.27632813 4.09765625 18.19140625 C4.07414577 20.37788058 4.04128499 22.56380094 4 24.75 C3.40541992 24.74202393 2.81083984 24.73404785 2.19824219 24.72583008 C-1.86492244 24.69402206 -5.73610004 24.735822 -9.75 25.4375 C-12.96933749 25.84273129 -13.89844049 25.79443229 -17 24.4375 C-20.00605045 21.90114493 -19.98327531 20.92282183 -20.375 16.875 C-20.3053021 13.68051273 -20.12466451 12.91621935 -18.125 10.25 C-13.72534308 8.13816468 -9.79649232 8.41471122 -5 8.75 C-6.1490712 7.4518576 -6.1490712 7.4518576 -9 6.75 C-11.06618749 6.84268505 -11.06618749 6.84268505 -13.1875 7.1875 C-14.445625 7.373125 -15.70375 7.55875 -17 7.75 C-17.33 5.44 -17.66 3.13 -18 0.75 C-12.44228041 -2.21411711 -5.76545617 -2.40227341 0 0 Z M-10 13.75 C-10.66 15.07 -11.32 16.39 -12 17.75 C-10.93354885 19.04633621 -10.93354885 19.04633621 -8.4375 18.8125 C-7.633125 18.791875 -6.82875 18.77125 -6 18.75 C-5.34 17.43 -4.68 16.11 -4 14.75 C-6.97 14.255 -6.97 14.255 -10 13.75 Z " fill="#1B074C" transform="translate(278,345.25)"/>
<path d="M0 0 C4.58148207 3.62256722 4.58148207 3.62256722 5.13671875 6.25390625 C5.21535156 7.05699219 5.29398437 7.86007812 5.375 8.6875 C5.46136719 9.49316406 5.54773438 10.29882812 5.63671875 11.12890625 C5.66185547 12.11697266 5.66185547 12.11697266 5.6875 13.125 C4.6875 14.125 4.6875 14.125 1.08984375 14.22265625 C-0.39846867 14.2159822 -1.88676432 14.20402183 -3.375 14.1875 C-4.13361328 14.18298828 -4.89222656 14.17847656 -5.67382812 14.17382812 C-7.55341871 14.1620068 -9.43296899 14.14407078 -11.3125 14.125 C-10.9825 14.785 -10.6525 15.445 -10.3125 16.125 C-5.22946314 16.23820856 -5.22946314 16.23820856 -0.3125 15.125 C1.875 16.5625 1.875 16.5625 3.6875 18.125 C3.5625 19.9375 3.5625 19.9375 2.6875 22.125 C-2.0697287 25.37383912 -5.74985067 25.65477613 -11.3125 25.125 C-15.88743538 23.25343553 -18.14842096 20.53330916 -20.3125 16.125 C-21.03984313 11.98318497 -21.27742485 8.05484971 -19.359375 4.21875 C-14.39949886 -2.18514071 -7.11394501 -4.02676132 0 0 Z M-9.3125 5.125 C-9.9725 6.445 -10.6325 7.765 -11.3125 9.125 C-8.6725 9.125 -6.0325 9.125 -3.3125 9.125 C-3.9725 7.805 -4.6325 6.485 -5.3125 5.125 C-6.6325 5.125 -7.9525 5.125 -9.3125 5.125 Z " fill="#1A074B" transform="translate(350.3125,345.875)"/>
<path d="M0 0 C1.30066406 -0.00128906 2.60132813 -0.00257813 3.94140625 -0.00390625 C4.96258545 -0.00076416 4.96258545 -0.00076416 6.00439453 0.00244141 C8.08503515 0.0077901 10.16545989 0.0024957 12.24609375 -0.00390625 C14.19708984 -0.00197266 14.19708984 -0.00197266 16.1875 0 C17.39083984 0.00112793 18.59417969 0.00225586 19.83398438 0.00341797 C22.59375 0.1328125 22.59375 0.1328125 23.59375 1.1328125 C23.71875 4.1328125 23.71875 4.1328125 23.59375 7.1328125 C23.26375 7.4628125 22.93375 7.7928125 22.59375 8.1328125 C19.29375 8.1328125 15.99375 8.1328125 12.59375 8.1328125 C12.59375 16.7128125 12.59375 25.2928125 12.59375 34.1328125 C9.62375 34.1328125 6.65375 34.1328125 3.59375 34.1328125 C3.59375 25.5528125 3.59375 16.9728125 3.59375 8.1328125 C0.29375 8.1328125 -3.00625 8.1328125 -6.40625 8.1328125 C-7.40625 7.1328125 -7.40625 7.1328125 -7.53125 4.1328125 C-7.30786595 -1.22840478 -4.78506926 0.0044852 0 0 Z " fill="#19054A" transform="translate(305.40625,335.8671875)"/>
<path d="M0 0 C0.66 0 1.32 0 2 0 C4.6969991 6.40537286 6.35499147 11.36291762 3.8125 18.1875 C1.47953993 21.80761046 -1.15544755 24.07772378 -5 26 C-10.299331 26.88508911 -14.2320793 26.28888772 -18.8125 23.4375 C-23.94204589 19.632863 -26.37061535 15.88467965 -27.75 9.5625 C-27.8325 8.716875 -27.915 7.87125 -28 7 C-26.5 8.3125 -26.5 8.3125 -25 10 C-25 10.99 -25 11.98 -25 13 C-24.401875 12.835 -23.80375 12.67 -23.1875 12.5 C-21 12 -21 12 -18 12 C-17.01 11.34 -16.02 10.68 -15 10 C-14.34 11.32 -13.68 12.64 -13 14 C-11.35 13.67 -9.7 13.34 -8 13 C-8.55312735 8.97007218 -9.1558062 4.97977076 -10 1 C-7.525 1.495 -7.525 1.495 -5 2 C-5 2.66 -5 3.32 -5 4 C-2.525 4.495 -2.525 4.495 0 5 C0 3.35 0 1.7 0 0 Z " fill="#B3EFFB" transform="translate(315,271)"/>
<path d="M0 0 C2.0625 1.25 2.0625 1.25 3 3.1875 C3.0625 5.25 3.0625 5.25 1.0625 8.25 C-1.9075 7.92 -4.8775 7.59 -7.9375 7.25 C-7.23882812 7.57613281 -6.54015625 7.90226562 -5.8203125 8.23828125 C-4.91023437 8.67527344 -4.00015625 9.11226563 -3.0625 9.5625 C-2.15757812 9.99175781 -1.25265625 10.42101562 -0.3203125 10.86328125 C2.0625 12.25 2.0625 12.25 4.0625 15.25 C3.73533507 21.35707869 3.73533507 21.35707869 1.80859375 23.9140625 C-1.58576998 26.51109247 -5.79479553 26.35654459 -9.9375 26.25 C-12.80994961 25.62600287 -14.37291544 24.83240324 -16.9375 23.25 C-18 21.25 -18 21.25 -17.9375 19.25 C-16.9475 17.765 -16.9475 17.765 -15.9375 16.25 C-12.6375 16.58 -9.3375 16.91 -5.9375 17.25 C-6.63617188 17.00765625 -7.33484375 16.7653125 -8.0546875 16.515625 C-9.41980469 16.01289063 -9.41980469 16.01289063 -10.8125 15.5 C-11.71742188 15.17515625 -12.62234375 14.8503125 -13.5546875 14.515625 C-16.28999732 13.06277192 -16.97551172 12.15284184 -17.9375 9.25 C-17.65092931 5.42905744 -16.53942473 3.05207279 -13.9375 0.25 C-9.22102207 -1.32215931 -4.76043572 -1.2154304 0 0 Z " fill="#1B0A4C" transform="translate(158.9375,344.75)"/>
<path d="M0 0 C0.99 0.66 1.98 1.32 3 2 C2.6875 3.9375 2.6875 3.9375 2 6 C1.01 6.33 0.02 6.66 -1 7 C-1 7.66 -1 8.32 -1 9 C-1.53625 8.855625 -2.0725 8.71125 -2.625 8.5625 C-5.39915827 7.90546252 -8.18525388 7.44780052 -11 7 C-13.36692966 9.84826598 -13.36692966 9.84826598 -12.625 13.1875 C-12.41875 14.115625 -12.2125 15.04375 -12 16 C-8.05272412 16.17942163 -5.4019487 16.09350689 -2 14 C0.5 15.8125 0.5 15.8125 3 18 C3 18.99 3 19.98 3 21 C-2.08663675 23.95949775 -5.95559774 25.78353363 -12 25 C-16.62994259 23.27511943 -19.62722164 21.38051389 -22 17 C-22.72480586 12.56310431 -23.03984968 8.15640958 -21.046875 4.0234375 C-15.68345603 -2.86753751 -7.61317269 -3.80658634 0 0 Z " fill="#251759" transform="translate(382,346)"/>
<path d="M0 0 C2.18767059 1.91421177 2.70488433 2.89721517 3 5.75 C1.02 6.74 1.02 6.74 -1 7.75 C-1 8.41 -1 9.07 -1 9.75 C-1.70125 9.42 -2.4025 9.09 -3.125 8.75 C-6.26003116 7.65955438 -8.70563182 7.59677357 -12 7.75 C-12 10.72 -12 13.69 -12 16.75 C-7.78121808 16.94622241 -4.82989106 16.55230168 -1 14.75 C2.94029851 18.09328358 2.94029851 18.09328358 3.1875 20.8125 C1.66163488 23.30206941 -0.12683157 24.25996189 -2.83203125 25.26953125 C-6.99772344 26.19273871 -10.90598635 25.89493602 -15 24.75 C-18.2426714 22.2504408 -20.72801839 19.68157954 -22 15.75 C-22.56448371 10.76372719 -21.93063625 7.41204924 -19.25390625 3.26171875 C-14.49370306 -2.47721781 -6.44794077 -2.68664199 0 0 Z " fill="#363270" transform="translate(188,345.25)"/>
<path d="M0 0 C2 2 2 2 2.23377991 4.43276978 C2.22632248 5.45736298 2.21886505 6.48195618 2.21118164 7.53759766 C2.20780289 8.70126862 2.20442413 9.86493958 2.20094299 11.06387329 C2.18748337 12.33443573 2.17402374 13.60499817 2.16015625 14.9140625 C2.15219969 16.92769515 2.14424945 18.94132784 2.13662624 20.95496178 C2.1234625 23.79644269 2.10130696 26.63782604 2.07904053 29.47924805 C2.03103042 35.70745229 1.99660577 41.93572105 1.97265625 48.1640625 C1.96997364 48.83698586 1.96729103 49.50990921 1.96452713 50.20322418 C1.93435567 59.46347609 2.06141607 68.70740467 2.43359375 77.9609375 C2.47307632 78.97249908 2.5125589 79.98406067 2.55323792 81.02627563 C2.3708826 85.34910868 2.3708826 85.34910868 4 89 C4.04063832 90.66617115 4.042721 92.33388095 4 94 C5.485 93.505 5.485 93.505 7 93 C7.99 93 8.98 93 10 93 C11.47685215 90.0462957 11.10142278 87.06633033 11.0625 83.83203125 C11.05871338 83.11899338 11.05492676 82.40595551 11.05102539 81.67131042 C11.03469829 78.61991331 11.00675637 75.56864998 10.97949219 72.51733398 C10.96127158 70.28890619 10.94925553 68.06050111 10.9375 65.83203125 C10.92920166 65.15259964 10.92090332 64.47316803 10.91235352 63.77314758 C10.89037816 59.42427175 11.13362408 55.26643631 12 51 C14.25 49 14.25 49 17 48 C19.8125 48.3125 19.8125 48.3125 22 49 C21.67 49.66 21.34 50.32 21 51 C19.02 50.67 17.04 50.34 15 50 C14.99383667 51.96791504 14.99383667 51.96791504 14.98754883 53.97558594 C14.96577477 58.84382398 14.91150268 63.71125179 14.84741211 68.57910156 C14.82421709 70.6857934 14.80983288 72.79260144 14.80444336 74.89941406 C14.79516491 77.92847233 14.75419823 80.95569904 14.70703125 83.984375 C14.71293022 85.39707672 14.71293022 85.39707672 14.71894836 86.83831787 C14.57311212 93.37623804 14.57311212 93.37623804 11.6159668 96.59472656 C8.67060844 98.17694614 7.27717235 98.67224048 4 98 C1.61180745 96.35436452 0.20155241 95.0478732 -0.35944366 92.13124847 C-0.49399607 89.71757174 -0.49430767 87.3341734 -0.45410156 84.91699219 C-0.45468567 83.99957245 -0.45526978 83.08215271 -0.45587158 82.13693237 C-0.45308631 79.10652748 -0.42197308 76.07710792 -0.390625 73.046875 C-0.3831642 70.94509417 -0.37747051 68.84330638 -0.37347412 66.74151611 C-0.35820524 61.2109861 -0.31891228 55.68087661 -0.2746582 50.1505127 C-0.23373275 44.50664967 -0.21546891 38.86271866 -0.1953125 33.21875 C-0.15241952 22.14564862 -0.08415274 11.07285929 0 0 Z " fill="#1EA8DB" transform="translate(162,208)"/>
<path d="M0 0 C2.64 0 5.28 0 8 0 C8.33 0.66 8.66 1.32 9 2 C8.67 2.66 8.34 3.32 8 4 C7.90444583 5.45579587 7.87015309 6.9160796 7.875 8.375 C7.87242187 9.14585937 7.86984375 9.91671875 7.8671875 10.7109375 C7.92117335 12.95593943 7.92117335 12.95593943 8.5 14.890625 C9.0045358 17.01913539 9.12918378 18.85613028 9.1328125 21.0390625 C9.13474609 22.15667969 9.13474609 22.15667969 9.13671875 23.296875 C9.13285156 24.06515625 9.12898438 24.8334375 9.125 25.625 C9.12886719 26.40101563 9.13273437 27.17703125 9.13671875 27.9765625 C9.12670133 33.74659734 9.12670133 33.74659734 8 36 C5.36 36 2.72 36 0 36 C0 24.12 0 12.24 0 0 Z " fill="#211151" transform="translate(390,334)"/>
<path d="M0 0 C2.40634018 2.40634018 2.25319111 2.94669038 2.26742554 6.23103333 C2.27595551 7.11845718 2.28448547 8.00588104 2.29327393 8.92019653 C2.29191437 10.38439529 2.29191437 10.38439529 2.29052734 11.87817383 C2.30060318 13.41738243 2.30060318 13.41738243 2.31088257 14.98768616 C2.32994558 18.39418323 2.33379115 21.8004841 2.3359375 25.20703125 C2.34236036 27.56874168 2.34908832 29.9304513 2.35610962 32.29216003 C2.36810367 37.249561 2.37178833 42.20689218 2.37060547 47.16430664 C2.37040232 53.52002756 2.39769095 59.87530112 2.43214989 66.23091602 C2.45437844 71.11136432 2.45844422 75.99170436 2.45738602 80.8721981 C2.4597486 83.21538521 2.46860886 85.558575 2.48405075 87.90171242 C2.50362549 91.17934149 2.49790524 94.45599816 2.48583984 97.73364258 C2.49707886 98.70370239 2.50831787 99.67376221 2.51989746 100.67321777 C2.48190424 104.7306244 2.3553406 107.34098088 0.40713501 110.95414734 C-2 113 -2 113 -9 116 C-9.33 124.25 -9.66 132.5 -10 141 C-10.33 141 -10.66 141 -11 141 C-11.59230068 133.94527586 -12.09056128 126.89157914 -12.25 119.8125 C-12.27578125 118.76707031 -12.3015625 117.72164063 -12.328125 116.64453125 C-12 114 -12 114 -10.71484375 112.1484375 C-7.94988595 110.29673455 -5.22147238 110.81765251 -2 111 C-1.16818452 108.08752011 -0.86663602 105.48198473 -0.84178162 102.45684814 C-0.82709839 101.09812843 -0.82709839 101.09812843 -0.81211853 99.71195984 C-0.80636307 98.72581192 -0.8006076 97.739664 -0.79467773 96.72363281 C-0.77982834 95.15730858 -0.77982834 95.15730858 -0.76467896 93.55934143 C-0.73308752 90.10729236 -0.70831572 86.65522954 -0.68359375 83.203125 C-0.6630222 80.80987185 -0.64202567 78.41662231 -0.62062073 76.02337646 C-0.56542089 69.72368295 -0.51600233 63.42395677 -0.46777344 57.12420654 C-0.41754323 50.69605602 -0.36186508 44.26795296 -0.30664062 37.83984375 C-0.19908456 25.22660332 -0.09744889 12.61332236 0 0 Z " fill="#5BABE1" transform="translate(275,156)"/>
<path d="M0 0 C2.92077403 1.46038701 2.92566742 3.67530672 3.93359375 6.609375 C5.60339465 10.35266494 8.13184756 13.40978383 10.671875 16.60546875 C12 19 12 19 11.80859375 21.6796875 C11 24 11 24 9.3125 25.9375 C7 27 7 27 4.16015625 26.50390625 C-0.06117348 24.49499161 -1.55067617 21.93711996 -3.875 18 C-4.2771875 17.35804688 -4.679375 16.71609375 -5.09375 16.0546875 C-8 11.32955995 -8 11.32955995 -8 9 C-7.236875 8.814375 -6.47375 8.62875 -5.6875 8.4375 C-1.81384272 6.36554378 -1.43454737 4.07713462 0 0 Z " fill="#B5F4FB" transform="translate(332,260)"/>
<path d="M0 0 C3.375 0.3125 3.375 0.3125 7 1 C9.42479736 4.63719605 9.38662577 6.85703482 9.625 11.1875 C9.69976562 12.45980469 9.77453125 13.73210937 9.8515625 15.04296875 C9.92503906 16.50669922 9.92503906 16.50669922 10 18 C6.7 17.67 3.4 17.34 0 17 C-0.33 16.01 -0.66 15.02 -1 14 C0.65 13.67 2.3 13.34 4 13 C3.67 11.35 3.34 9.7 3 8 C0.03 7.67 -2.94 7.34 -6 7 C-5.67 10.63 -5.34 14.26 -5 18 C-7.3431213 17.74438677 -9.67843403 17.40729228 -12 17 C-13.61281328 13.77437344 -13.57906485 10.48817637 -13 7 C-11.125 4.5 -11.125 4.5 -8 3 C-4.63744182 2.6919794 -1.3652967 2.76475596 2 3 C1.67 2.67 1.34 2.34 1 2 C0.67 1.34 0.34 0.68 0 0 Z " fill="#211055" transform="translate(271,351)"/>
<path d="M0 0 C2.10209857 3.15314785 2.2434761 3.86103081 2.1953125 7.44921875 C2.18886719 8.29677734 2.18242187 9.14433594 2.17578125 10.01757812 C2.15902344 10.89865234 2.14226562 11.77972656 2.125 12.6875 C2.11597656 13.58017578 2.10695312 14.47285156 2.09765625 15.39257812 C2.07409748 17.59532314 2.04120329 19.79752588 2 22 C1.37351563 21.98839844 0.74703125 21.97679687 0.1015625 21.96484375 C-1.12433594 21.95130859 -1.12433594 21.95130859 -2.375 21.9375 C-3.59316406 21.92009766 -3.59316406 21.92009766 -4.8359375 21.90234375 C-7.04937142 21.85533666 -7.04937142 21.85533666 -9 23 C-12.65978542 23.27621022 -15.36334353 23.24051467 -18.8125 21.9375 C-21.87277321 19.2269723 -22.37994025 16.99594061 -23 13 C-22.375 10.1875 -22.375 10.1875 -21 8 C-17.81833391 5.97726658 -14.97198779 5.64085627 -11.25 5.375 C-10.26515625 5.30023438 -9.2803125 5.22546875 -8.265625 5.1484375 C-7.51796875 5.09945313 -6.7703125 5.05046875 -6 5 C-6.33 6.98 -6.66 8.96 -7 11 C-9.31 11.33 -11.62 11.66 -14 12 C-13.67 12.99 -13.34 13.98 -13 15 C-11.02 15 -9.04 15 -7 15 C-6.67 14.01 -6.34 13.02 -6 12 C-6.33 13.65 -6.66 15.3 -7 17 C-8.32 17.33 -9.64 17.66 -11 18 C-6.90729837 19.46167915 -3.35806333 20.27365611 1 21 C0.67 14.07 0.34 7.14 0 0 Z " fill="#2B2565" transform="translate(134,348)"/>
<path d="M0 0 C0.66 0.99 1.32 1.98 2 3 C1.5560791 4.051875 1.1121582 5.10375 0.65478516 6.1875 C-2.06132328 12.78988836 -1.46244047 19.97889531 -1.4765625 27 C-1.49063303 28.58552277 -1.50607899 30.17103385 -1.52281189 31.75653076 C-1.55563905 35.10766068 -1.57979129 38.45868879 -1.59671021 41.80993652 C-1.6230793 47.00528383 -1.66851029 52.20034015 -1.71850586 57.39550781 C-1.73497919 59.12017814 -1.75144345 60.84484855 -1.76789856 62.56951904 C-1.78009398 63.84225803 -1.78009398 63.84225803 -1.79253578 65.14070892 C-1.81634091 67.69611086 -1.83825345 70.25152278 -1.85966492 72.8069458 C-1.9707528 85.79149831 -2.20064073 98.76983924 -2.5625 111.75 C-2.5849176 112.57274414 -2.60733521 113.39548828 -2.63043213 114.24316406 C-2.7467589 118.49566256 -2.86906966 122.74792151 -3 127 C-3.33 127 -3.66 127 -4 127 C-4.0936985 112.06552576 -4.16410364 97.13107441 -4.20724869 82.19636822 C-4.22781973 75.26093877 -4.25583483 68.32569261 -4.30175781 61.39038086 C-4.34608736 54.69248255 -4.36916442 47.99481362 -4.37950897 41.29676247 C-4.38687729 38.74639713 -4.40126574 36.19604172 -4.42292023 33.64575768 C-4.45212333 30.06268533 -4.4559488 26.48038975 -4.45410156 22.8972168 C-4.46848267 21.85207916 -4.48286377 20.80694153 -4.49768066 19.73013306 C-4.45741168 12.47142717 -2.8747171 6.65269887 0 0 Z " fill="#98BFE3" transform="translate(289,146)"/>
<path d="M0 0 C2.64 0.33 5.28 0.66 8 1 C7.34 1.66 6.68 2.32 6 3 C5.01 3 4.02 3 3 3 C3.33 4.65 3.66 6.3 4 8 C6.31 8.33 8.62 8.66 11 9 C11 8.34 11 7.68 11 7 C11.66 7 12.32 7 13 7 C13 6.01 13 5.02 13 4 C14.32 4.33 15.64 4.66 17 5 C17 7.97 17 10.94 17 14 C10.41476152 15.46473135 4.62457459 16.65614365 -2 15 C-4 12.9375 -4 12.9375 -5 11 C-4.34 11 -3.68 11 -3 11 C-3 8.36 -3 5.72 -3 3 C-2.01 2.67 -1.02 2.34 0 2 C0 1.34 0 0.68 0 0 Z " fill="#2A2163" transform="translate(200,355)"/>
<path d="M0 0 C0.66 0 1.32 0 2 0 C4.6969991 6.40537286 6.35499147 11.36291762 3.8125 18.1875 C1.47953993 21.80761046 -1.15544755 24.07772378 -5 26 C-7.6723621 26.13415472 -10.32250488 26.04318541 -13 26 C-13 25.67 -13 25.34 -13 25 C-12.0925 24.896875 -11.185 24.79375 -10.25 24.6875 C-6.98038425 23.99585051 -5.46282263 23.17865079 -3 21 C-4.98 21.66 -6.96 22.32 -9 23 C-7.86927723 19.94704852 -6.38627756 18.39203206 -3.875 16.4375 C-2.92625 15.633125 -1.9775 14.82875 -1 14 C-1 13.01 -1 12.02 -1 11 C-2.89179203 10.3185177 -2.89179203 10.3185177 -5 10 C-5.66 10.66 -6.32 11.32 -7 12 C-7.53229326 10.73392393 -8.05044544 9.46189588 -8.5625 8.1875 C-8.85253906 7.47980469 -9.14257812 6.77210938 -9.44140625 6.04296875 C-10 4 -10 4 -9 1 C-7.68 1.33 -6.36 1.66 -5 2 C-5 2.66 -5 3.32 -5 4 C-3.35 4.33 -1.7 4.66 0 5 C0 3.35 0 1.7 0 0 Z " fill="#A9E3F2" transform="translate(315,271)"/>
<path d="M0 0 C9.76931447 -0.43743199 9.76931447 -0.43743199 14 3 C15.54586876 6.09173752 15.29359521 8.59429552 15 12 C13.13291495 14.36497439 11.67938569 15.66030715 9 17 C5.99525503 17.13559318 3.00931153 17.04299016 0 17 C0 11.39 0 5.78 0 0 Z M4 4 C4.33 6.64 4.66 9.28 5 12 C6.65 11.67 8.3 11.34 10 11 C10.25030977 8.58380177 10.25030977 8.58380177 10 6 C7.18490007 3.7226499 7.18490007 3.7226499 4 4 Z " fill="#6EB3DF" transform="translate(188,377)"/>
<path d="M0 0 C2.18767059 1.91421177 2.70488433 2.89721517 3 5.75 C1.35 6.74 -0.3 7.73 -2 8.75 C-2.33 7.76 -2.66 6.77 -3 5.75 C-5.97 5.75 -8.94 5.75 -12 5.75 C-13.65 10.37 -15.3 14.99 -17 19.75 C-17.66 19.42 -18.32 19.09 -19 18.75 C-19.6328125 16.68359375 -19.6328125 16.68359375 -20.125 14.1875 C-20.29257813 13.36121094 -20.46015625 12.53492188 -20.6328125 11.68359375 C-20.75398437 11.04550781 -20.87515625 10.40742188 -21 9.75 C-20.34 9.75 -19.68 9.75 -19 9.75 C-18.896875 8.8425 -18.79375 7.935 -18.6875 7 C-17.98703826 3.68872634 -17.31974305 2.15896394 -15 -0.25 C-9.93719499 -1.93760167 -4.95144282 -2.06310118 0 0 Z " fill="#1A064A" transform="translate(188,345.25)"/>
<path d="M0 0 C2 2 2 2 2 6 C-0.64 5.67 -3.28 5.34 -6 5 C-6.33 6.65 -6.66 8.3 -7 10 C-5.68 10.33 -4.36 10.66 -3 11 C-3 9.68 -3 8.36 -3 7 C-1.33388095 6.957279 0.33382885 6.95936168 2 7 C2.33 7.33 2.66 7.66 3 8 C2.75 11.4375 2.75 11.4375 2 15 C-1.51253146 17.34168764 -2.86469356 17.49623677 -7 17 C-9.875 15.5625 -9.875 15.5625 -12 13 C-12.90705593 8.70134365 -12.72920717 5.24572891 -10.5 1.4375 C-6.77982245 -0.70160209 -4.26311009 -0.41255904 0 0 Z " fill="#77C1EB" transform="translate(234,377)"/>
<path d="M0 0 C0.74886475 0.00523682 1.49772949 0.01047363 2.26928711 0.01586914 C3.07817383 0.0190918 3.88706055 0.02231445 4.72045898 0.02563477 C5.5705957 0.03401367 6.42073242 0.04239258 7.29663086 0.05102539 C8.15063477 0.05553711 9.00463867 0.06004883 9.88452148 0.06469727 C12.00108749 0.07652166 14.11761771 0.0944577 16.23413086 0.11352539 C16.23413086 0.44352539 16.23413086 0.77352539 16.23413086 1.11352539 C10.95413086 1.11352539 5.67413086 1.11352539 0.23413086 1.11352539 C0.56413086 1.77352539 0.89413086 2.43352539 1.23413086 3.11352539 C6.31716772 3.22673395 6.31716772 3.22673395 11.23413086 2.11352539 C13.42163086 3.55102539 13.42163086 3.55102539 15.23413086 5.11352539 C15.10913086 6.92602539 15.10913086 6.92602539 14.23413086 9.11352539 C9.47690216 12.36236451 5.79678019 12.64330152 0.23413086 12.11352539 C-4.33531359 9.9746365 -4.33531359 9.9746365 -5.76586914 7.11352539 C-4.44586914 6.45352539 -3.12586914 5.79352539 -1.76586914 5.11352539 C-2.04430664 4.15446289 -2.04430664 4.15446289 -2.32836914 3.17602539 C-2.47274414 2.49540039 -2.61711914 1.81477539 -2.76586914 1.11352539 C-1.76586914 0.11352539 -1.76586914 0.11352539 0 0 Z " fill="#251B5E" transform="translate(338.765869140625,358.886474609375)"/>
<path d="M0 0 C2.3203125 0.171875 2.3203125 0.171875 5 1 C6.6171875 3.328125 6.6171875 3.328125 7.875 6.25 C8.30554688 7.20390625 8.73609375 8.1578125 9.1796875 9.140625 C10.06936197 12.24177602 9.90406496 13.94180493 9 17 C7.68 16.34 6.36 15.68 5 15 C5 14.34 5 13.68 5 13 C2.56282742 13.27034634 2.56282742 13.27034634 0 14 C-0.99 15.485 -0.99 15.485 -2 17 C-3.32 16.67 -4.64 16.34 -6 16 C-5.23757784 12.38944909 -3.87526626 9.14165375 -2.4375 5.75 C-1.98246094 4.67234375 -1.52742188 3.5946875 -1.05859375 2.484375 C-0.70925781 1.66453125 -0.35992187 0.8446875 0 0 Z M2 7 C3 9 3 9 3 9 Z " fill="#74C1E8" transform="translate(278,377)"/>
<path d="M0 0 C0.99386719 0.03609375 1.98773438 0.0721875 3.01171875 0.109375 C4.15060547 0.17898438 4.15060547 0.17898438 5.3125 0.25 C3.640625 4.1171875 3.640625 4.1171875 0.6875 5.3125 C-1.96764463 7.02246204 -1.96764463 7.02246204 -2.01171875 9.8828125 C-2.00096077 12.68705874 -1.90109416 15.45428973 -1.6875 18.25 C-1.0275 18.25 -0.3675 18.25 0.3125 18.25 C0.3125 18.91 0.3125 19.57 0.3125 20.25 C-2.52651178 20.48658431 -4.27665671 20.46253096 -6.83203125 19.140625 C-8.6875 17.25 -8.6875 17.25 -9.18359375 14.25390625 C-9.16425781 13.11824219 -9.14492187 11.98257812 -9.125 10.8125 C-9.12371094 9.67941406 -9.12242187 8.54632813 -9.12109375 7.37890625 C-8.26618925 1.20973055 -6.08592917 -0.28639667 0 0 Z " fill="#1B044A" transform="translate(234.6875,345.75)"/>
<path d="M0 0 C0.66 0 1.32 0 2 0 C3.72206188 2.99126319 4.24179923 5.10685713 4.1953125 8.546875 C4.18886719 9.39121094 4.18242187 10.23554688 4.17578125 11.10546875 C4.15902344 11.97816406 4.14226562 12.85085938 4.125 13.75 C4.11597656 14.63816406 4.10695313 15.52632813 4.09765625 16.44140625 C4.07414577 18.62788058 4.04128499 20.81380094 4 23 C3.40614502 22.99274902 2.81229004 22.98549805 2.20043945 22.97802734 C-2.63117137 22.94361766 -7.18637975 23.19448848 -11.95703125 23.9765625 C-14.45380558 24.00520618 -15.87238538 23.25266299 -18 22 C-16 21 -16 21 -12 22 C-12.33 18.37 -12.66 14.74 -13 11 C-9.7 11 -6.4 11 -3 11 C-3 12.98 -3 14.96 -3 17 C-3.99 17.33 -4.98 17.66 -6 18 C-5.34 16.35 -4.68 14.7 -4 13 C-5.98 13 -7.96 13 -10 13 C-10.33 13.99 -10.66 14.98 -11 16 C-9.68 16.66 -8.36 17.32 -7 18 C-7 18.99 -7 19.98 -7 21 C-4.03 21 -1.06 21 2 21 C1.85888117 18.24968413 1.71228835 15.49984582 1.5625 12.75 C1.52318359 11.97269531 1.48386719 11.19539063 1.44335938 10.39453125 C1.40146484 9.64042969 1.35957031 8.88632812 1.31640625 8.109375 C1.27974854 7.41811523 1.24309082 6.72685547 1.20532227 6.01464844 C0.99324476 3.93371671 0.55491323 2.01427578 0 0 Z " fill="#312668" transform="translate(278,347)"/>
<path d="M0 0 C2.0625 1.25 2.0625 1.25 3 3.1875 C3.0625 5.25 3.0625 5.25 1.0625 8.25 C-2.27083333 7.58333333 -5.60416667 6.91666667 -8.9375 6.25 C-9.2675 5.26 -9.5975 4.27 -9.9375 3.25 C-11.9175 4.24 -11.9175 4.24 -13.9375 5.25 C-13.9375 7.89 -13.9375 10.53 -13.9375 13.25 C-14.5975 13.25 -15.2575 13.25 -15.9375 13.25 C-17.43588501 10.87021205 -17.96306668 9.59088901 -17.75 6.75 C-16.86347842 4.02224128 -15.88562401 2.34797971 -13.9375 0.25 C-9.22102207 -1.32215931 -4.76043572 -1.2154304 0 0 Z " fill="#25195C" transform="translate(158.9375,344.75)"/>
<path d="M0 0 C3.5625 0.375 3.5625 0.375 5.5625 2 C6.90430884 5.18679601 6.49197204 7.08609893 5.5625 10.375 C3.5625 12.375 3.5625 12.375 0.6875 12.75 C-2.4375 12.375 -2.4375 12.375 -4.875 10.75 C-6.4375 8.375 -6.4375 8.375 -6.3125 5.25 C-5.05218932 1.1089792 -4.34449835 0.47394527 0 0 Z " fill="#1CBFEE" transform="translate(190.4375,300.625)"/>
<path d="M0 0 C2 2 2 2 2.125 5.625 C2.08375 6.73875 2.0425 7.8525 2 9 C1.34 9 0.68 9 0 9 C0 9.66 0 10.32 0 11 C-6.0546875 11.1953125 -6.0546875 11.1953125 -8 11 C-10 9 -10 9 -10.3125 5.5625 C-10 2 -10 2 -8.9375 0 C-5.80557344 -1.61647822 -3.32814714 -0.78665296 0 0 Z " fill="#25BCE8" transform="translate(217,297)"/>
<path d="M0 0 C0.99 0.66 1.98 1.32 3 2 C3.36328125 3.875 3.36328125 3.875 3.3125 6 C3.30863281 6.70125 3.30476562 7.4025 3.30078125 8.125 C3 10 3 10 1 12 C-4.97716895 12.543379 -4.97716895 12.543379 -8 10.9375 C-9.63378851 7.77203476 -8.85267564 5.34979714 -8 2 C-4.75366476 -0.1642235 -3.75698557 -0.37569856 0 0 Z " fill="#32AADA" transform="translate(208,317)"/>
<path d="M0 0 C4.29 0 8.58 0 13 0 C13.33 1.32 13.66 2.64 14 4 C12.35 4 10.7 4 9 4 C9 7.96 9 11.92 9 16 C7.68 16.33 6.36 16.66 5 17 C4 16 4 16 3.90234375 13.27734375 C3.91394531 12.17519531 3.92554688 11.07304687 3.9375 9.9375 C3.94652344 8.83277344 3.95554687 7.72804688 3.96484375 6.58984375 C3.97644531 5.73519531 3.98804688 4.88054687 4 4 C2.35 3.67 0.7 3.34 -1 3 C-0.67 2.01 -0.34 1.02 0 0 Z " fill="#7DCAF2" transform="translate(255,377)"/>
<path d="M0 0 C2.1642235 3.24633524 2.37569856 4.24301443 2 8 C1.01 9.485 1.01 9.485 0 11 C-1.875 11.36328125 -1.875 11.36328125 -4 11.3125 C-4.70125 11.30863281 -5.4025 11.30476563 -6.125 11.30078125 C-8 11 -8 11 -10 9 C-10.375 5.5625 -10.375 5.5625 -10 2 C-7.01983499 -1.66789539 -4.31348256 -1.31279904 0 0 Z " fill="#2FAFDE" transform="translate(183,321)"/>
<path d="M0 0 C1.8125 1.125 1.8125 1.125 3 3 C3.39365568 6.14924548 3.52854531 8.11909116 1.875 10.875 C-0.88090884 12.52854531 -2.85075452 12.39365568 -6 12 C-7.875 10.875 -7.875 10.875 -9 9 C-9.4375 6 -9.4375 6 -9 3 C-6.30254095 0.00282328 -3.95012118 -0.60771095 0 0 Z " fill="#36ACDD" transform="translate(233,314)"/>
<path d="M0 0 C1.98 0.66 3.96 1.32 6 2 C4.1963841 6.14831657 3.18962771 8.24305935 -1 10 C-1.99 11.485 -1.99 11.485 -3 13 C-1.35 12.34 0.3 11.68 2 11 C2 11.99 2 12.98 2 14 C-1.89071844 16.59381229 -4.36166385 16.63187808 -9 17 C-9.66 16.67 -10.32 16.34 -11 16 C-11 15.01 -11 14.02 -11 13 C-10.01 12.67 -9.02 12.34 -8 12 C-8.33 11.34 -8.66 10.68 -9 10 C-8.5625 7.875 -8.5625 7.875 -8 6 C-6.02 6 -4.04 6 -2 6 C-1.855625 5.195625 -1.71125 4.39125 -1.5625 3.5625 C-1 1 -1 1 0 0 Z " fill="#B4F1FC" transform="translate(310,280)"/>
<path d="M0 0 C2.35210784 2.11689705 2.91810953 3.44041515 3.375 6.5625 C3 9 3 9 1.875 10.8125 C-0.87155972 12.55198782 -2.81846974 12.39769128 -6 12 C-7.875 10.875 -7.875 10.875 -9 9 C-9.39365568 5.85075452 -9.52854531 3.88090884 -7.875 1.125 C-5.08893958 -0.54663625 -3.18011138 -0.46376624 0 0 Z " fill="#37A1D5" transform="translate(269,315)"/>
<path d="M0 0 C1.8125 1.25 1.8125 1.25 3 3 C3.42317323 5.82115488 3.38718434 7.33950907 1.9375 9.8125 C-1.05550269 11.646921 -3.57816663 11.31107576 -7 11 C-9 9 -9 9 -9.375 5.5625 C-9 2 -9 2 -7.3125 0 C-4.35711914 -1.27800253 -3.01001617 -1.08051862 0 0 Z " fill="#88C4E4" transform="translate(320,312)"/>
<path d="M0 0 C1.9375 1.625 1.9375 1.625 3 4 C2.77962372 7.67293796 2.63033454 9.36966546 0 12 C-3.10347254 12.33015665 -5.15781176 12.50531294 -7.875 10.875 C-9.52854531 8.11909116 -9.39365568 6.14924548 -9 3 C-6.79848461 -0.66919231 -4.00961374 -0.58473534 0 0 Z " fill="#A5DAF6" transform="translate(332,296)"/>
<path d="M0 0 C2.875 0.875 2.875 0.875 4.875 2.875 C5.21990322 6.92761287 5.17663882 8.42254176 2.875 11.875 C-3.06732331 12.52325345 -3.06732331 12.52325345 -6.0625 10.6875 C-7.53859492 8.16945572 -7.61589348 6.75023324 -7.125 3.875 C-4.88889892 0.60685227 -4.01504863 -0.16060195 0 0 Z " fill="#7DC4EB" transform="translate(296.125,298.125)"/>
<path d="M0 0 C2.3125 1.3125 2.3125 1.3125 4.3125 3.3125 C4.16612273 6.75236596 3.89709664 8.66526801 1.5625 11.25 C-1.32508514 12.61358187 -2.70166183 12.33397095 -5.6875 11.3125 C-7.6875 9.3125 -7.6875 9.3125 -8.125 5.875 C-7.6875 2.3125 -7.6875 2.3125 -5.5 0.25 C-2.6875 -0.6875 -2.6875 -0.6875 0 0 Z " fill="#57B7E4" transform="translate(279.6875,292.6875)"/>
<path d="M0 0 C2.92865228 1.46432614 2.97685026 3.71876343 4.00390625 6.65625 C5.76044005 10.78927071 8.39682317 14.36060716 11 18 C8.37886292 18 6.49064888 17.68707555 4 17 C3.67 14.69 3.34 12.38 3 10 C-0.75151144 11.78907722 -0.75151144 11.78907722 -2.8125 15.1875 C-2.874375 15.785625 -2.93625 16.38375 -3 17 C-2.34 17 -1.68 17 -1 17 C-1.33 18.32 -1.66 19.64 -2 21 C-3.00533667 19.37829621 -4.00411907 17.75252763 -5 16.125 C-5.556875 15.22007812 -6.11375 14.31515625 -6.6875 13.3828125 C-8 11 -8 11 -8 9 C-7.236875 8.814375 -6.47375 8.62875 -5.6875 8.4375 C-1.81384272 6.36554378 -1.43454737 4.07713462 0 0 Z " fill="#B1E0F3" transform="translate(332,260)"/>
<path d="M0 0 C1.32 0 2.64 0 4 0 C4.33 3.96 4.66 7.92 5 12 C6.98 12 8.96 12 11 12 C11.33 12.99 11.66 13.98 12 15 C11.67 15.66 11.34 16.32 11 17 C7.37 17 3.74 17 0 17 C-1.42597611 14.14804778 -1.1320252 11.67538825 -1.125 8.5 C-1.12757813 7.3346875 -1.13015625 6.169375 -1.1328125 4.96875 C-1 2 -1 2 0 0 Z " fill="#80C2E8" transform="translate(295,377)"/>
<path d="M0 0 C0.33 0 0.66 0 1 0 C1.020625 1.2375 1.04125 2.475 1.0625 3.75 C1.37755807 6.3252573 1.57896318 7.58690727 3.44921875 9.421875 C6.9570332 11.52199819 9.84976197 12.50305916 14 12 C13.67 12.66 13.34 13.32 13 14 C10.03 13.67 7.06 13.34 4 13 C4.99 14.32 5.98 15.64 7 17 C5.35 17 3.7 17 2 17 C2 17.66 2 18.32 2 19 C-2.41889613 17.64978174 -4.34345343 15.73884332 -7 12 C-6.67 11.34 -6.34 10.68 -6 10 C-5.01 10.33 -4.02 10.66 -3 11 C-2.67 9.02 -2.34 7.04 -2 5 C-1.67 5 -1.34 5 -1 5 C-0.67 3.35 -0.34 1.7 0 0 Z " fill="#2C2262" transform="translate(85,350)"/>
<path d="M0 0 C0.33 0 0.66 0 1 0 C1.02570433 7.34252154 1.04301268 14.68503117 1.05493164 22.02758789 C1.0599092 24.51685011 1.06669366 27.00610949 1.07543945 29.49536133 C1.12517632 44.0331557 0.99251606 58.4927049 0 73 C-0.33 73 -0.66 73 -1 73 C-1.19617816 70.45873828 -1.38217248 67.91739541 -1.5625 65.375 C-1.61857422 64.66214844 -1.67464844 63.94929688 -1.73242188 63.21484375 C-2.02495798 58.96331896 -1.89547939 55.20543653 -1 51 C-1.66 51 -2.32 51 -3 51 C-2.67 50.34 -2.34 49.68 -2 49 C-1.85325997 47.42869361 -1.76353384 45.85187971 -1.70288086 44.27490234 C-1.66291489 43.29403656 -1.62294891 42.31317078 -1.58177185 41.30258179 C-1.54318558 40.24108917 -1.5045993 39.17959656 -1.46484375 38.0859375 C-1.42186661 37.00116119 -1.37888947 35.91638489 -1.33460999 34.79873657 C-1.19794888 31.32430952 -1.06765654 27.84967622 -0.9375 24.375 C-0.84612159 22.0234212 -0.75433007 19.67185842 -0.66210938 17.3203125 C-0.43660724 11.54705247 -0.21633746 5.77361032 0 0 Z " fill="#43B5E1" transform="translate(222,208)"/>
<path d="M0 0 C0.99 0.33 1.98 0.66 3 1 C2.34 1 1.68 1 1 1 C1.185625 1.598125 1.37125 2.19625 1.5625 2.8125 C2 5 2 5 1 8 C0.01 8.495 0.01 8.495 -1 9 C-1.65572604 11.74312664 -1.65572604 11.74312664 -2.0625 14.9375 C-2.91122278 20.82244556 -2.91122278 20.82244556 -4 23 C-5.32 22.67 -6.64 22.34 -8 22 C-8.08160748 20.10489301 -8.13946459 18.20875496 -8.1875 16.3125 C-8.22230469 15.25675781 -8.25710937 14.20101563 -8.29296875 13.11328125 C-7.73614005 7.19604828 -4.17412287 3.9484946 0 0 Z " fill="#180547" transform="translate(86,338)"/>
<path d="M0 0 C0.99 0.66 1.98 1.32 3 2 C2.31292969 2.33773437 1.62585938 2.67546875 0.91796875 3.0234375 C0.01691406 3.46945313 -0.88414062 3.91546875 -1.8125 4.375 C-2.70582031 4.81585938 -3.59914063 5.25671875 -4.51953125 5.7109375 C-7.14556381 7.01866905 -7.14556381 7.01866905 -10 9 C-11.546875 9.433125 -11.546875 9.433125 -13.125 9.875 C-14.548125 10.431875 -14.548125 10.431875 -16 11 C-16.96877057 13.03243548 -16.96877057 13.03243548 -17 15 C-18.32 15.33 -19.64 15.66 -21 16 C-20.67 17.32 -20.34 18.64 -20 20 C-20.66 20 -21.32 20 -22 20 C-22 21.65 -22 23.3 -22 25 C-23.65 24.67 -25.3 24.34 -27 24 C-26.04861818 16.88316979 -20.43242527 11.59219552 -14.94140625 7.23828125 C-10.29350317 4.27372335 -5.24790312 1.68857764 0 0 Z " fill="#6DB4E3" transform="translate(267,117)"/>
<path d="M0 0 C2.31 0 4.62 0 7 0 C7 1.32 7 2.64 7 4 C6.34 4 5.68 4 5 4 C4.67 5.98 4.34 7.96 4 10 C4.66 10.33 5.32 10.66 6 11 C4.4156683 10.91231752 2.83246433 10.80412671 1.25 10.6875 C-0.07257813 10.60048828 -0.07257813 10.60048828 -1.421875 10.51171875 C-4.32303774 9.9358819 -5.79225607 8.92403852 -8 7 C-7.49396008 4.83125748 -7.00016187 3.00032373 -6 1 C-2.7 1.33 0.6 1.66 4 2 C2.68 1.34 1.36 0.68 0 0 Z " fill="#24165B" transform="translate(149,360)"/>
<path d="M0 0 C0.33 0 0.66 0 1 0 C1.02578125 0.75925781 1.0515625 1.51851563 1.078125 2.30078125 C1.13484375 3.29464844 1.1915625 4.28851563 1.25 5.3125 C1.29640625 6.29863281 1.3428125 7.28476562 1.390625 8.30078125 C1.76231608 11.10984631 1.76231608 11.10984631 3.90625 12.8125 C5.96136762 13.9780891 7.68303334 14.58625595 10 15 C10 14.34 10 13.68 10 13 C9.34 13 8.68 13 8 13 C8 11.35 8 9.7 8 8 C8.33 8.99 8.66 9.98 9 11 C11.31 11.33 13.62 11.66 16 12 C16 12.66 16 13.32 16 14 C14.68 14.33 13.36 14.66 12 15 C12 15.66 12 16.32 12 17 C13.7634375 16.9690625 13.7634375 16.9690625 15.5625 16.9375 C19.47413467 16.93052739 23.14497944 17.35749657 27 18 C27 18.33 27 18.66 27 19 C26.38511719 18.98839844 25.77023438 18.97679687 25.13671875 18.96484375 C23.92435547 18.95130859 23.92435547 18.95130859 22.6875 18.9375 C21.88699219 18.92589844 21.08648437 18.91429687 20.26171875 18.90234375 C17.83138666 18.90342145 17.83138666 18.90342145 15 20 C9.29375217 20.53832527 6.4444534 19.61757835 2 16 C0.03103546 13.04655319 -0.33984715 11.94214163 -0.6875 8.5625 C-0.77386719 7.80066406 -0.86023438 7.03882813 -0.94921875 6.25390625 C-1.00072363 3.96788208 -0.66016176 2.17903015 0 0 Z " fill="#312C6C" transform="translate(225,351)"/>
<path d="M0 0 C-0.33 0.66 -0.66 1.32 -1 2 C-0.79375 2.639375 -0.5875 3.27875 -0.375 3.9375 C-0.25125 4.618125 -0.1275 5.29875 0 6 C-1.12109375 7.6171875 -1.12109375 7.6171875 -3 9 C-5.69921875 9.29296875 -5.69921875 9.29296875 -8.6875 9.1875 C-9.68136719 9.16042969 -10.67523438 9.13335937 -11.69921875 9.10546875 C-12.45847656 9.07066406 -13.21773438 9.03585937 -14 9 C-14.66 7.02 -15.32 5.04 -16 3 C-10.62669111 -0.39366878 -6.13053511 -0.32712342 0 0 Z " fill="#211355" transform="translate(129,344)"/>
<path d="M0 0 C0.66 0 1.32 0 2 0 C4.85793316 2.85793316 4.40799941 5.14665584 4.625 9.125 C4.69976562 10.40632813 4.77453125 11.68765625 4.8515625 13.0078125 C4.92503906 14.48894531 4.92503906 14.48894531 5 16 C1.7 15.67 -1.6 15.34 -5 15 C-5.33 14.01 -5.66 13.02 -6 12 C-4.35 11.67 -2.7 11.34 -1 11 C-1.34444881 8.52733235 -1.34444881 8.52733235 -2 6 C-2.66 5.67 -3.32 5.34 -4 5 C-4 4.34 -4 3.68 -4 3 C-3.01 2.67 -2.02 2.34 -1 2 C-0.67 1.34 -0.34 0.68 0 0 Z " fill="#190549" transform="translate(276,353)"/>
<path d="M0 0 C2 2 2 2 2.125 5.375 C2.08375 6.57125 2.0425 7.7675 2 9 C2 11.35453537 2.02897647 13.70992348 2.125 16.0625 C2 19 2 19 0 22 C-0.66 21.67 -1.32 21.34 -2 21 C-1.67 20.67 -1.34 20.34 -1 20 C-0.95907063 17.66702567 -0.95758277 15.33294775 -1 13 C-4.86763446 11.12456646 -4.86763446 11.12456646 -9 12 C-9.33 12.99 -9.66 13.98 -10 15 C-10.33 13.68 -10.66 12.36 -11 11 C-10.34 11 -9.68 11 -9 11 C-8.67 10.34 -8.34 9.68 -8 9 C-6.66666667 8.33333333 -5.33333333 7.66666667 -4 7 C-3.67 6.34 -3.34 5.68 -3 5 C-5.97 5 -8.94 5 -12 5 C-10 3 -10 3 -8.125 2.76953125 C-7.42375 2.78371094 -6.7225 2.79789062 -6 2.8125 C-4.948125 2.82216797 -4.948125 2.82216797 -3.875 2.83203125 C-2 3 -2 3 0 4 C0 2.68 0 1.36 0 0 Z " fill="#342D6E" transform="translate(243,341)"/>
<path d="M0 0 C3.10039543 1.75494081 5.48825667 3.48825667 8 6 C8.4140625 8.1640625 8.4140625 8.1640625 8.625 10.625 C8.69976562 11.44226563 8.77453125 12.25953125 8.8515625 13.1015625 C8.92503906 14.04128906 8.92503906 14.04128906 9 15 C7.23537317 11.91190305 7 10.76687864 7 7 C6.01 7 5.02 7 4 7 C3.34 8.65 2.68 10.3 2 12 C-1.63 12 -5.26 12 -9 12 C-8.67 10.02 -8.34 8.04 -8 6 C-5.36 5.67 -2.72 5.34 0 5 C0 4.34 0 3.68 0 3 C-4.33273814 2.07155611 -7.66726186 2.07155611 -12 3 C-8.45092281 -0.54907719 -4.80919359 -0.40755878 0 0 Z M-6 7 C-6.66 8.32 -7.32 9.64 -8 11 C-5.36 11 -2.72 11 0 11 C-0.66 9.68 -1.32 8.36 -2 7 C-3.32 7 -4.64 7 -6 7 Z " fill="#282467" transform="translate(347,344)"/>
<path d="M0 0 C3.87713876 1.27919204 7.14566228 2.5042266 9.22265625 6.140625 C9.47917969 6.75421875 9.73570313 7.3678125 10 8 C8.3125 10.0625 8.3125 10.0625 6 12 C1.7 11.7 1.7 11.7 0 10 C-1.34747084 9.76924918 -2.70377565 9.58846937 -4.0625 9.4375 C-5.361875 9.293125 -6.66125 9.14875 -8 9 C-8 8.67 -8 8.34 -8 8 C-4.7 7.67 -1.4 7.34 2 7 C1.67 5.35 1.34 3.7 1 2 C-3.29 2 -7.58 2 -12 2 C-7.92602432 -0.71598379 -4.78326811 -0.63262578 0 0 Z " fill="#2F2C6B" transform="translate(99,335)"/>
<path d="M0 0 C0 1.32 0 2.64 0 4 C-1.65 4.66 -3.3 5.32 -5 6 C-5 5.34 -5 4.68 -5 4 C-4.34 4 -3.68 4 -3 4 C-3 2.68 -3 1.36 -3 0 C-3.99 0.33 -4.98 0.66 -6 1 C-9.32904889 1.2519693 -12.66239597 1.2311966 -16 1.25 C-16.91523438 1.270625 -17.83046875 1.29125 -18.7734375 1.3125 C-19.65257812 1.31765625 -20.53171875 1.3228125 -21.4375 1.328125 C-22.24058594 1.3374707 -23.04367187 1.34681641 -23.87109375 1.35644531 C-26.47918624 0.91976928 -27.34979556 0.00969432 -29 -2 C-19.32232995 -4.82360256 -9.47099265 -2.56633349 0 0 Z " fill="#72BAE4" transform="translate(303,118)"/>
<path d="M0 0 C2.125 0.375 2.125 0.375 4 1 C4.02692484 3.29160319 4.04636124 5.58329546 4.0625 7.875 C4.07410156 9.15117187 4.08570313 10.42734375 4.09765625 11.7421875 C4 15 4 15 3 17 C1.68 16.67 0.36 16.34 -1 16 C-1.22127098 13.70954632 -1.4266504 11.41755236 -1.625 9.125 C-1.74101562 7.84882813 -1.85703125 6.57265625 -1.9765625 5.2578125 C-1.98816406 3.64519531 -1.98816406 3.64519531 -2 2 C-1.34 1.34 -0.68 0.68 0 0 Z " fill="#72B9E3" transform="translate(211,377)"/>
<path d="M0 0 C3.81248426 -0.02887236 7.6249407 -0.04675492 11.4375 -0.0625 C12.52611328 -0.07087891 13.61472656 -0.07925781 14.73632812 -0.08789062 C15.77080078 -0.09111328 16.80527344 -0.09433594 17.87109375 -0.09765625 C18.82943115 -0.10289307 19.78776855 -0.10812988 20.77514648 -0.11352539 C23 0 23 0 24 1 C24.125 4 24.125 4 24 7 C23.67 7.33 23.34 7.66 23 8 C19.7 8 16.4 8 13 8 C13 16.58 13 25.16 13 34 C12.67 34 12.34 34 12 34 C11.97113662 29.52084672 11.95324813 25.04171709 11.9375 20.5625 C11.92493164 18.6434082 11.92493164 18.6434082 11.91210938 16.68554688 C11.90727539 14.86313477 11.90727539 14.86313477 11.90234375 13.00390625 C11.89710693 11.87799072 11.89187012 10.7520752 11.88647461 9.59204102 C12 7 12 7 13 6 C14.51928038 5.92820036 16.04167482 5.91607993 17.5625 5.9375 C18.38878906 5.94652344 19.21507812 5.95554687 20.06640625 5.96484375 C20.70449219 5.97644531 21.34257812 5.98804688 22 6 C22 4.35 22 2.7 22 1 C14.74 1 7.48 1 0 1 C0 0.67 0 0.34 0 0 Z " fill="#333677" transform="translate(305,336)"/>
<path d="M0 0 C2.475 0.495 2.475 0.495 5 1 C5 5.62 5 10.24 5 15 C3.02 15.99 3.02 15.99 1 17 C0 16 0 16 -0.09765625 12.40234375 C-0.0909822 10.91403133 -0.07902183 9.42573568 -0.0625 7.9375 C-0.05798828 7.17888672 -0.05347656 6.42027344 -0.04882812 5.63867188 C-0.0370068 3.75908129 -0.01907078 1.87953101 0 0 Z " fill="#8ECDF0" transform="translate(244,377)"/>
<path d="M0 0 C-1.45833333 0.72916667 -2.91666667 1.45833333 -4.375 2.1875 C-5.29152344 2.65027344 -6.20804688 3.11304687 -7.15234375 3.58984375 C-8.92173005 4.4660419 -10.70394165 5.31737775 -12.50390625 6.12890625 C-23.66828338 11.27204628 -31.81703837 19.14143661 -39 29 C-39.33 28.34 -39.66 27.68 -40 27 C-33.6562763 18.05372299 -12.1928022 -6.0964011 0 0 Z " fill="#2E3775" transform="translate(214,109)"/>
<path d="M0 0 C0.66 0 1.32 0 2 0 C2 3.96 2 7.92 2 12 C1.01 11.67 0.02 11.34 -1 11 C-0.34 11 0.32 11 1 11 C0.67 10.01 0.34 9.02 0 8 C-1.98 8 -3.96 8 -6 8 C-6 7.34 -6 6.68 -6 6 C-5.01 5.67 -4.02 5.34 -3 5 C-4.98 4.34 -6.96 3.68 -9 3 C-9 3.66 -9 4.32 -9 5 C-9.99 5.495 -9.99 5.495 -11 6 C-11.46523063 7.89533342 -11.46523063 7.89533342 -11.625 10.0625 C-11.74875 11.361875 -11.8725 12.66125 -12 14 C-12.99 13.67 -13.98 13.34 -15 13 C-15.44594856 9.16484239 -15.29530442 7.44295663 -13.125 4.1875 C-8.86857261 1.20800083 -5.0946377 1.1088175 0 1 C0 0.67 0 0.34 0 0 Z " fill="#322E6F" transform="translate(209,352)"/>
<path d="M0 0 C-0.59859155 6.34507042 -0.59859155 6.34507042 -2.1875 8.9375 C-4.80642619 10.47273259 -7.02914805 10.1980568 -10 10 C-9.67 8.02 -9.34 6.04 -9 4 C-8.34 4 -7.68 4 -7 4 C-6.87625 3.360625 -6.7525 2.72125 -6.625 2.0625 C-6.41875 1.381875 -6.2125 0.70125 -6 0 C-3.50907189 -1.24546405 -2.58919267 -0.7767578 0 0 Z " fill="#25195A" transform="translate(163,360)"/>
<path d="M0 0 C0.99 0 1.98 0 3 0 C3.33 1.65 3.66 3.3 4 5 C4.66 5 5.32 5 6 5 C6 5.66 6 6.32 6 7 C6.66 7 7.32 7 8 7 C8 7.99 8 8.98 8 10 C8.99 10.33 9.98 10.66 11 11 C11 11.33 11 11.66 11 12 C3.26697892 12.29742389 3.26697892 12.29742389 0 10 C-0.64453125 7.87109375 -0.64453125 7.87109375 -0.8125 5.4375 C-0.88082031 4.63183594 -0.94914062 3.82617188 -1.01953125 2.99609375 C-1 1 -1 1 0 0 Z " fill="#221256" transform="translate(114,359)"/>
<path d="M0 0 C4.62 0 9.24 0 14 0 C13.67 1.32 13.34 2.64 13 4 C10.23547967 5.38226016 7.9538637 5.09525387 4.875 5.0625 C3.77929688 5.05347656 2.68359375 5.04445313 1.5546875 5.03515625 C0.29011719 5.01775391 0.29011719 5.01775391 -1 5 C-1.33 4.34 -1.66 3.68 -2 3 C-1.34 3 -0.68 3 0 3 C0 2.01 0 1.02 0 0 Z " fill="#1A0548" transform="translate(177,364)"/>
<path d="M0 0 C1.32 0.33 2.64 0.66 4 1 C4 3.97 4 6.94 4 10 C2.00045254 10.04254356 -0.00041636 10.04080783 -2 10 C-2.33 9.67 -2.66 9.34 -3 9 C-4.66014616 8.63557767 -6.32706064 8.30027117 -8 8 C-6.6875 6.5 -6.6875 6.5 -5 5 C-4.01 5 -3.02 5 -2 5 C-2 4.34 -2 3.68 -2 3 C-1.34 3 -0.68 3 0 3 C0 2.01 0 1.02 0 0 Z " fill="#180446" transform="translate(213,359)"/>
<path d="M0 0 C0.33 0 0.66 0 1 0 C1.02505615 0.80630859 1.0501123 1.61261719 1.07592773 2.44335938 C1.1926268 6.12903875 1.31501591 9.81450852 1.4375 13.5 C1.47681641 14.7684375 1.51613281 16.036875 1.55664062 17.34375 C1.80212551 25.08863942 1.80212551 25.08863942 2.66015625 32.78125 C2.77230469 33.8434375 2.88445312 34.905625 3 36 C1 38 1 38 -0.9453125 38.1953125 C-2.96354167 38.13020833 -4.98177083 38.06510417 -7 38 C-7.33 36.68 -7.66 35.36 -8 34 C-7.05125 34.165 -6.1025 34.33 -5.125 34.5 C-2.19831099 35.0526635 -2.19831099 35.0526635 0 35 C0 23.45 0 11.9 0 0 Z " fill="#499FD2" transform="translate(252,262)"/>
<path d="M0 0 C6.15234375 -0.09765625 6.15234375 -0.09765625 8 0 C9 1 9 1 9.11352539 3.77563477 C9.10828857 4.98533936 9.10305176 6.19504395 9.09765625 7.44140625 C9.09443359 8.74658203 9.09121094 10.05175781 9.08789062 11.39648438 C9.07953401 12.7851569 9.07106905 14.17382877 9.0625 15.5625 C9.05748666 16.95507656 9.05292347 18.34765481 9.04882812 19.74023438 C9.03699434 23.1601987 9.0205088 26.58007844 9 30 C8.34 29.67 7.68 29.34 7 29 C7 20.09 7 11.18 7 2 C4.69 2 2.38 2 0 2 C0 1.34 0 0.68 0 0 Z " fill="#37A3D0" transform="translate(177,258)"/>
<path d="M0 0 C0.33 0 0.66 0 1 0 C1.66 7.59 2.32 15.18 3 23 C4.32 23.33 5.64 23.66 7 24 C7 21.36 7 18.72 7 16 C7.33 16 7.66 16 8 16 C8 19.3 8 22.6 8 26 C5.36 26 2.72 26 0 26 C0 17.42 0 8.84 0 0 Z " fill="#211E61" transform="translate(309,344)"/>
<path d="M0 0 C0.66 0 1.32 0 2 0 C3.72206188 2.99126319 4.24179923 5.10685713 4.1953125 8.546875 C4.18564453 9.81337891 4.18564453 9.81337891 4.17578125 11.10546875 C4.15902344 11.97816406 4.14226562 12.85085938 4.125 13.75 C4.11597656 14.63816406 4.10695313 15.52632813 4.09765625 16.44140625 C4.0741475 18.62772011 4.03827811 20.81389484 4 23 C0.04 23 -3.92 23 -8 23 C-7.67 21.68 -7.34 20.36 -7 19 C-7 19.66 -7 20.32 -7 21 C-4.03 21 -1.06 21 2 21 C1.85888117 18.24968413 1.71228835 15.49984582 1.5625 12.75 C1.52318359 11.97269531 1.48386719 11.19539063 1.44335938 10.39453125 C1.38051758 9.26337891 1.38051758 9.26337891 1.31640625 8.109375 C1.27974854 7.41811523 1.24309082 6.72685547 1.20532227 6.01464844 C0.99324476 3.93371671 0.55491323 2.01427578 0 0 Z " fill="#2C2369" transform="translate(278,347)"/>
<path d="M0 0 C2.10209857 3.15314785 2.2434761 3.86103081 2.1953125 7.44921875 C2.18886719 8.29677734 2.18242187 9.14433594 2.17578125 10.01757812 C2.15902344 10.89865234 2.14226562 11.77972656 2.125 12.6875 C2.11597656 13.58017578 2.10695312 14.47285156 2.09765625 15.39257812 C2.07409748 17.59532314 2.04120329 19.79752588 2 22 C0.04174127 22.02694851 -1.91662226 22.04637218 -3.875 22.0625 C-4.96554688 22.07410156 -6.05609375 22.08570313 -7.1796875 22.09765625 C-10 22 -10 22 -12 21 C-12 20.01 -12 19.02 -12 18 C-12.66 18 -13.32 18 -14 18 C-14 17.34 -14 16.68 -14 16 C-10.535 15.505 -10.535 15.505 -7 15 C-6.67 14.01 -6.34 13.02 -6 12 C-6.33 13.65 -6.66 15.3 -7 17 C-8.32 17.33 -9.64 17.66 -11 18 C-6.90729837 19.46167915 -3.35806333 20.27365611 1 21 C0.67 14.07 0.34 7.14 0 0 Z " fill="#343373" transform="translate(134,348)"/>
<path d="M0 0 C2.64 0.33 5.28 0.66 8 1 C7.34 1.66 6.68 2.32 6 3 C5.01 3 4.02 3 3 3 C3 3.66 3 4.32 3 5 C2.34 5 1.68 5 1 5 C1 7.31 1 9.62 1 12 C-0.32 12 -1.64 12 -3 12 C-3 9.03 -3 6.06 -3 3 C-2.01 2.67 -1.02 2.34 0 2 C0 1.34 0 0.68 0 0 Z " fill="#1A0348" transform="translate(200,355)"/>
<path d="M0 0 C1.98 0.66 3.96 1.32 6 2 C6 4.31 6 6.62 6 9 C3.69 9 1.38 9 -1 9 C-1.625 6.1875 -1.625 6.1875 -2 3 C-1.34 2.01 -0.68 1.02 0 0 Z " fill="#09C6F6" transform="translate(228,315)"/>
<path d="M0 0 C1.8125 0.05078125 1.8125 0.05078125 4 0.3125 C4.721875 0.39113281 5.44375 0.46976562 6.1875 0.55078125 C7.0846875 0.77314453 7.0846875 0.77314453 8 1 C8.33 1.66 8.66 2.32 9 3 C8.01 3.495 8.01 3.495 7 4 C6.34786708 6.02463255 6.34786708 6.02463255 6 8 C4.02 8.33 2.04 8.66 0 9 C-0.87890625 2.84765625 -0.87890625 2.84765625 -1 1 C-0.67 0.67 -0.34 0.34 0 0 Z " fill="#95E6FB" transform="translate(314,313)"/>
<path d="M0 0 C1.98 0 3.96 0 6 0 C6.38063221 2.3260857 6.71269945 4.66055264 7 7 C6.67 7.33 6.34 7.66 6 8 C3.66055264 7.71269945 1.3260857 7.38063221 -1 7 C-0.67 4.69 -0.34 2.38 0 0 Z " fill="#02CAF7" transform="translate(176,322)"/>
<path d="M0 0 C-0.33 0.66 -0.66 1.32 -1 2 C-3.97 1.505 -3.97 1.505 -7 1 C-7 1.99 -7 2.98 -7 4 C-7.66 4 -8.32 4 -9 4 C-9 13.57 -9 23.14 -9 33 C-10.8309477 29.3381046 -11.25069123 28.28189769 -11.23046875 24.48046875 C-11.22853516 23.62259766 -11.22660156 22.76472656 -11.22460938 21.88085938 C-11.20624023 20.54764648 -11.20624023 20.54764648 -11.1875 19.1875 C-11.18685547 18.31029297 -11.18621094 17.43308594 -11.18554688 16.52929688 C-11.1523796 11.60211396 -11.01656522 6.83026331 -10 2 C-6.55207714 -1.06482032 -4.3491741 -1.36688329 0 0 Z " fill="#0EC1F0" transform="translate(184,257)"/>
<path d="M0 0 C0 2.64 0 5.28 0 8 C-2.31 8 -4.62 8 -7 8 C-7.6875 5.6875 -7.6875 5.6875 -8 3 C-5.90994325 -0.36731366 -3.75103888 -0.30413829 0 0 Z " fill="#07C5F6" transform="translate(209,319)"/>
<path d="M0 0 C2.64 0 5.28 0 8 0 C8 11.22 8 22.44 8 34 C7.67 34 7.34 34 7 34 C6.67 23.77 6.34 13.54 6 3 C3.525 2.01 3.525 2.01 1 1 C1 2.65 1 4.3 1 6 C0.34 5.34 -0.32 4.68 -1 4 C-0.625 1.875 -0.625 1.875 0 0 Z " fill="#272469" transform="translate(244,334)"/>
<path d="M0 0 C2.26274788 0.35355436 3.95088852 0.97544426 6 2 C6 3.32 6 4.64 6 6 C4.68 6 3.36 6 2 6 C2.33 7.32 2.66 8.64 3 10 C2.01 10 1.02 10 0 10 C-1.75 8.25 -1.75 8.25 -3 6 C-2.73495121 2.99611368 -2.16695725 2.16695725 0 0 Z " fill="#51CFF9" transform="translate(276,295)"/>
<path d="M0 0 C4.29 0 8.58 0 13 0 C13 0.99 13 1.98 13 3 C10.36 3 7.72 3 5 3 C5.11382653 4.95901454 5.24141125 6.9172338 5.375 8.875 C5.44460938 9.96554687 5.51421875 11.05609375 5.5859375 12.1796875 C5.73253491 15.13046474 5.73253491 15.13046474 8 17 C6.68 16.67 5.36 16.34 4 16 C4 12.04 4 8.08 4 4 C2.35 3.67 0.7 3.34 -1 3 C-0.67 2.01 -0.34 1.02 0 0 Z " fill="#69A3D3" transform="translate(255,377)"/>
<path d="M0 0 C0.66 1.32 1.32 2.64 2 4 C0.35 4.66 -1.3 5.32 -3 6 C-2.67 7.32 -2.34 8.64 -2 10 C-2.66 10 -3.32 10 -4 10 C-4 11.65 -4 13.3 -4 15 C-5.65 14.67 -7.3 14.34 -9 14 C-8.47929737 9.86330684 -7.3269206 7.78546392 -4.5 4.75 C-3.8709375 4.06421875 -3.241875 3.3784375 -2.59375 2.671875 C-1.73729192 1.77343369 -0.87770076 0.87770076 0 0 Z " fill="#66C4F0" transform="translate(249,127)"/>
<path d="M0 0 C2.125 0.375 2.125 0.375 4 1 C3.030625 1.721875 2.06125 2.44375 1.0625 3.1875 C-0.96771329 4.90243311 -1.89863399 5.73934454 -2.875 8.25 C-3.05318277 12.17002084 -3.07692169 16.07699404 -3 20 C-3.66 20.33 -4.32 20.66 -5 21 C-6.74233296 17.51533408 -6.45428851 13.80996631 -6 10 C-4.61029165 6.12067196 -2.91849449 2.91849449 0 0 Z " fill="#31316C" transform="translate(82,339)"/>
<path d="M0 0 C1.8871875 0.0309375 1.8871875 0.0309375 3.8125 0.0625 C3.0390625 0.43375 3.0390625 0.43375 2.25 0.8125 C-0.95934151 2.45831616 -4.06335664 4.2601096 -7.1875 6.0625 C-7.1875 8.7025 -7.1875 11.3425 -7.1875 14.0625 C-7.8475 14.0625 -8.5075 14.0625 -9.1875 14.0625 C-10.68588501 11.68271205 -11.21306668 10.40338901 -11 7.5625 C-10.11347842 4.83474128 -9.13562401 3.16047971 -7.1875 1.0625 C-4.43671116 0.14557039 -2.82801087 -0.04636083 0 0 Z " fill="#3E3975" transform="translate(152.1875,343.9375)"/>
<path d="M0 0 C2.56695636 0.39491636 4.67123994 0.83561997 7 2 C7 3.32 7 4.64 7 6 C6.34 6 5.68 6 5 6 C5 6.66 5 7.32 5 8 C3.33388095 8.042721 1.66617115 8.04063832 0 8 C-1 7 -1 7 -1.125 4 C-1 1 -1 1 0 0 Z " fill="#07C7F7" transform="translate(263,317)"/>
<path d="M0 0 C0.99 0.66 1.98 1.32 3 2 C3 2.66 3 3.32 3 4 C4.98 3.67 6.96 3.34 9 3 C9 3.66 9 4.32 9 5 C7.02 5 5.04 5 3 5 C3.33 6.98 3.66 8.96 4 11 C2.68 11.33 1.36 11.66 0 12 C0 12.66 0 13.32 0 14 C-1.32 13.34 -2.64 12.68 -4 12 C-3.34 11.67 -2.68 11.34 -2 11 C-2 10.34 -2 9.68 -2 9 C-1.34 9 -0.68 9 0 9 C-0.66 7.35 -1.32 5.7 -2 4 C-0.68 4.33 0.64 4.66 2 5 C1.34 3.35 0.68 1.7 0 0 Z " fill="#A3E1EF" transform="translate(299,281)"/>
<path d="M0 0 C2.31 0 4.62 0 7 0 C6.34 0.639375 5.68 1.27875 5 1.9375 C1.14346256 5.7829235 -2.40833422 9.90924419 -6 14 C-8 11 -8 11 -8 9 C-6.68 9 -5.36 9 -4 9 C-4 7.68 -4 6.36 -4 5 C-3.01 5 -2.02 5 -1 5 C-0.67 3.35 -0.34 1.7 0 0 Z " fill="#5BB3E1" transform="translate(291,124)"/>
<path d="M0 0 C1.32 0.33 2.64 0.66 4 1 C4.33 3.64 4.66 6.28 5 9 C-1.625 9.25 -1.625 9.25 -5 7 C-3.68 6.67 -2.36 6.34 -1 6 C-0.67 4.02 -0.34 2.04 0 0 Z " fill="#19064A" transform="translate(350,350)"/>
<path d="M0 0 C0.66 0.99 1.32 1.98 2 3 C1.57421875 4.97265625 1.57421875 4.97265625 0.6875 7.0625 C0.26017578 8.10083984 0.26017578 8.10083984 -0.17578125 9.16015625 C-0.75511692 10.45336525 -1.36627777 11.73255553 -2 13 C-2.15378852 14.95774069 -2.24971463 16.92017352 -2.31640625 18.8828125 C-2.35830078 20.04941406 -2.40019531 21.21601563 -2.44335938 22.41796875 C-2.48267578 23.64128906 -2.52199219 24.86460937 -2.5625 26.125 C-2.60568359 27.35605469 -2.64886719 28.58710938 -2.69335938 29.85546875 C-2.79968704 32.90352853 -2.90171781 35.9516719 -3 39 C-3.33 39 -3.66 39 -4 39 C-4.11756758 34.56272822 -4.18770716 30.12586472 -4.25 25.6875 C-4.28351563 24.44419922 -4.31703125 23.20089844 -4.3515625 21.91992188 C-4.43681857 13.79928094 -3.39208586 7.4008277 0 0 Z " fill="#A0B5E8" transform="translate(289,146)"/>
<path d="M0 0 C2.64 0.33 5.28 0.66 8 1 C8.33 1.99 8.66 2.98 9 4 C7.02 4.66 5.04 5.32 3 6 C3 8.97 3 11.94 3 15 C2.34 15 1.68 15 1 15 C0.67 10.05 0.34 5.1 0 0 Z " fill="#7CCBF5" transform="translate(188,377)"/>
<path d="M0 0 C2.625 1.3125 2.625 1.3125 5 3 C5 3.66 5 4.32 5 5 C5.66 5 6.32 5 7 5 C7 5.66 7 6.32 7 7 C6.34 7 5.68 7 5 7 C5 7.66 5 8.32 5 9 C2.69 8.67 0.38 8.34 -2 8 C-2 5.66666667 -2 3.33333333 -2 1 C-1.34 0.67 -0.68 0.34 0 0 Z " fill="#7BE0FA" transform="translate(293,298)"/>
<path d="M0 0 C1.98 0.495 1.98 0.495 4 1 C4 1.66 4 2.32 4 3 C4.66 3 5.32 3 6 3 C6.33 4.65 6.66 6.3 7 8 C5.35 8.33 3.7 8.66 2 9 C-1.07692308 4.56923077 -1.07692308 4.56923077 -0.6875 1.6875 C-0.460625 1.130625 -0.23375 0.57375 0 0 Z " fill="#A1E8FA" transform="translate(326,299)"/>
<path d="M0 0 C0.33 0.99 0.66 1.98 1 3 C4.465 2.505 4.465 2.505 8 2 C8 2.99 8 3.98 8 5 C6.6078125 4.8453125 6.6078125 4.8453125 5.1875 4.6875 C4.135625 4.790625 3.08375 4.89375 2 5 C0.0645852 7.39056942 0.0645852 7.39056942 -1 10 C-2.32 9.67 -3.64 9.34 -5 9 C-4.6875 7.0625 -4.6875 7.0625 -4 5 C-3.01 4.67 -2.02 4.34 -1 4 C-0.26676204 1.98491642 -0.26676204 1.98491642 0 0 Z " fill="#7DCBEE" transform="translate(277,384)"/>
<path d="M0 0 C0 0.33 0 0.66 0 1 C-2.97 1 -5.94 1 -9 1 C-9.66 2.65 -10.32 4.3 -11 6 C-9.35 6.33 -7.7 6.66 -6 7 C-9.22791555 9.1519437 -10.28400809 9.20086443 -14 9 C-14.33 6.69 -14.66 4.38 -15 2 C-10.13948404 -0.59227518 -5.34728867 -0.18689553 0 0 Z " fill="#3A3775" transform="translate(275,344)"/>
<path d="M0 0 C1.125 3.75 1.125 3.75 0 6 C0.061875 7.175625 0.061875 7.175625 0.125 8.375 C-0.02827929 11.59386518 -1.0900182 12.47882402 -3 15 C-3.72045367 18.15118325 -3.72045367 18.15118325 -4 21 C-4.66 21 -5.32 21 -6 21 C-5.81045578 13.05637416 -3.62115114 7.02850737 0 0 Z " fill="#65B4E4" transform="translate(238,140)"/>
<path d="M0 0 C3.63 0.66 7.26 1.32 11 2 C10.01 2.33 9.02 2.66 8 3 C7.67 4.32 7.34 5.64 7 7 C4.03 6.67 1.06 6.34 -2 6 C-2 5.34 -2 4.68 -2 4 C-1.01 3.67 -0.02 3.34 1 3 C0.67 2.01 0.34 1.02 0 0 Z " fill="#170547" transform="translate(89,363)"/>
<path d="M0 0 C0.33 0 0.66 0 1 0 C1.02505615 0.72179443 1.0501123 1.44358887 1.07592773 2.18725586 C1.19151302 5.437535 1.31440774 8.68749688 1.4375 11.9375 C1.47681641 13.07380859 1.51613281 14.21011719 1.55664062 15.38085938 C1.59853516 16.46044922 1.64042969 17.54003906 1.68359375 18.65234375 C1.72025146 19.65257568 1.75690918 20.65280762 1.79467773 21.68334961 C1.74671841 23.96069188 1.74671841 23.96069188 3 25 C3.04063832 26.66617115 3.042721 28.33388095 3 30 C3.99 29.67 4.98 29.34 6 29 C6.33 29.66 6.66 30.32 7 31 C5.02 31 3.04 31 1 31 C-0.11911712 27.64264863 -0.11365586 25.11794614 -0.09765625 21.58203125 C-0.09443359 20.32841797 -0.09121094 19.07480469 -0.08789062 17.78320312 C-0.07951172 16.47287109 -0.07113281 15.16253906 -0.0625 13.8125 C-0.05748317 12.47721519 -0.05292059 11.14192859 -0.04882812 9.80664062 C-0.03702695 6.53771527 -0.02056297 3.26888009 0 0 Z " fill="#07CAF5" transform="translate(163,272)"/>
<path d="M0 0 C2.5 1.3125 2.5 1.3125 5 3 C5 3.99 5 4.98 5 6 C-0.09669502 8.96534983 -3.93406572 10.71363933 -10 10 C-10.99 9.34 -11.98 8.68 -13 8 C-6.565 7.505 -6.565 7.505 0 7 C0.66 5.35 1.32 3.7 2 2 C1.34 2 0.68 2 0 2 C0 1.34 0 0.68 0 0 Z " fill="#2F3174" transform="translate(380,361)"/>
<path d="M0 0 C1.66611905 -0.042721 3.33382885 -0.04063832 5 0 C6 1 6 1 6.25 3.4375 C6.1675 4.283125 6.085 5.12875 6 6 C3 8 3 8 -1 8 C-0.67 5.36 -0.34 2.72 0 0 Z " fill="#80C6EC" transform="translate(231,384)"/>
<path d="M0 0 C0.66 1.32 1.32 2.64 2 4 C2.33 4 2.66 4 3 4 C3 5.65 3 7.3 3 9 C0.69 8.67 -1.62 8.34 -4 8 C-4 5.69 -4 3.38 -4 1 C-2 0 -2 0 0 0 Z " fill="#1A0849" transform="translate(263,360)"/>
<path d="M0 0 C2 2 2 2 2.17944336 4.21484375 C2.13509155 5.56255859 2.13509155 5.56255859 2.08984375 6.9375 C2.06986328 7.91460937 2.04988281 8.89171875 2.02929688 9.8984375 C1.96809543 11.96626503 1.90299057 14.03398071 1.83398438 16.1015625 C1.81529297 17.07867187 1.79660156 18.05578125 1.77734375 19.0625 C1.74890381 19.96097656 1.72046387 20.85945313 1.69116211 21.78515625 C1.79307861 22.51605469 1.89499512 23.24695313 2 24 C2.99 24.66 3.98 25.32 5 26 C5 26.66 5 27.32 5 28 C3.35 27.67 1.7 27.34 0 27 C0 18.09 0 9.18 0 0 Z " fill="#0CC9F5" transform="translate(186,261)"/>
<path d="M0 0 C0 6.6 0 13.2 0 20 C-0.33 20 -0.66 20 -1 20 C-1 14.06 -1 8.12 -1 2 C-3.31 2 -5.62 2 -8 2 C-8.33 2.66 -8.66 3.32 -9 4 C-8.67 2.35 -8.34 0.7 -8 -1 C-5 -2 -5 -2 0 0 Z " fill="#34A3CF" transform="translate(208,258)"/>
<path d="M0 0 C2.46800047 1.15173355 4.04783565 2.04783565 6 4 C5.9375 5.9375 5.9375 5.9375 5 8 C2.09303401 10.14197494 0.64478912 11 -3 11 C-3 10.01 -3 9.02 -3 8 C-1.35 8 0.3 8 2 8 C2.33 6.35 2.66 4.7 3 3 C1.02 3 -0.96 3 -3 3 C-2.01 2.01 -1.02 1.02 0 0 Z " fill="#2B2C6E" transform="translate(102,359)"/>
<path d="M0 0 C0.33 0 0.66 0 1 0 C1.05429959 1.74965358 1.09292823 3.49979787 1.125 5.25 C1.14820313 6.22453125 1.17140625 7.1990625 1.1953125 8.203125 C0.99480354 11.07441338 0.6810245 12.67242762 -1 15 C-4.625 15.75 -4.625 15.75 -8 16 C-8.66 15.01 -9.32 14.02 -10 13 C-8.88625 12.896875 -7.7725 12.79375 -6.625 12.6875 C-5.42875 12.460625 -4.2325 12.23375 -3 12 C-0.97649676 8.96474514 -0.67875982 7.80573798 -0.375 4.3125 C-0.30023438 3.50425781 -0.22546875 2.69601562 -0.1484375 1.86328125 C-0.09945312 1.24839844 -0.05046875 0.63351562 0 0 Z " fill="#23B9E6" transform="translate(174,290)"/>
<path d="M0 0 C2.25 -0.375 2.25 -0.375 5 0 C9 4.97297297 9 4.97297297 9 8 C7.0625 7.625 7.0625 7.625 5 7 C4.67 6.34 4.34 5.68 4 5 C2.35636866 4.27840576 0.68949614 3.60648579 -1 3 C-0.67 2.01 -0.34 1.02 0 0 Z " fill="#B4DBF1" transform="translate(309,127)"/>
<path d="M0 0 C2 1.5625 2 1.5625 4 4 C4.25 7.75 4.25 7.75 4 11 C3.01 11 2.02 11 1 11 C0.63743142 9.5437328 0.28520207 8.08488815 -0.0625 6.625 C-0.35833984 5.40683594 -0.35833984 5.40683594 -0.66015625 4.1640625 C-1 2 -1 2 0 0 Z " fill="#83C5ED" transform="translate(199,378)"/>
<path d="M0 0 C0.94875 0.04125 1.8975 0.0825 2.875 0.125 C1.94538578 1.27724028 1.0059875 2.42159176 0.0625 3.5625 C-0.72060547 4.51962891 -0.72060547 4.51962891 -1.51953125 5.49609375 C-3.125 7.125 -3.125 7.125 -6.125 8.125 C-5.09178322 0.20367133 -5.09178322 0.20367133 0 0 Z " fill="#1F1359" transform="translate(232.125,345.875)"/>
<path d="M0 0 C2.0625 0.4375 2.0625 0.4375 4 1 C3.01 1 2.02 1 1 1 C1.33 2.65 1.66 4.3 2 6 C4.64 6 7.28 6 10 6 C10 6.66 10 7.32 10 8 C8.35425434 8.02688151 6.70838587 8.04634123 5.0625 8.0625 C4.14597656 8.07410156 3.22945313 8.08570313 2.28515625 8.09765625 C0 8 0 8 -1 7 C-1.125 4 -1.125 4 -1 1 C-0.67 0.67 -0.34 0.34 0 0 Z " fill="#393B78" transform="translate(299,336)"/>
<path d="M0 0 C0.33 0 0.66 0 1 0 C0.9278125 0.83402344 0.855625 1.66804687 0.78125 2.52734375 C0.34931665 7.76453561 -0.06635181 12.93034601 0.0625 18.1875 C0 22 0 22 -2 24 C-2.05819424 20.75007554 -2.09366116 17.50028565 -2.125 14.25 C-2.14175781 13.32960937 -2.15851563 12.40921875 -2.17578125 11.4609375 C-2.18222656 10.57148438 -2.18867188 9.68203125 -2.1953125 8.765625 C-2.20578613 7.94868164 -2.21625977 7.13173828 -2.22705078 6.29003906 C-1.97829916 3.78112482 -1.25700129 2.16604375 0 0 Z " fill="#205995" transform="translate(164,160)"/>
<path d="M0 0 C1.485 0.2475 1.485 0.2475 3 0.5 C7.02732942 1.08474517 10.93474623 1.07132024 15 1 C15 0.67 15 0.34 15 0 C16.65 0 18.3 0 20 0 C17.71344381 2.69305507 16.18978711 3.45561755 12.6875 3.8125 C8.67922547 4.13890672 5.70084473 3.71502561 2 2 C1.34 1.34 0.68 0.68 0 0 Z " fill="#6EC3EE" transform="translate(238,307)"/>
<path d="M0 0 C0.33 0.99 0.66 1.98 1 3 C0.154375 3.639375 -0.69125 4.27875 -1.5625 4.9375 C-5.73406821 8.38227948 -8.80853331 12.666026 -12 17 C-12.33 16.34 -12.66 15.68 -13 15 C-9.09489511 9.49280079 -4.90282356 4.64172645 0 0 Z " fill="#48558C" transform="translate(187,121)"/>
<path d="M0 0 C1.0209375 0.495 1.0209375 0.495 2.0625 1 C-0.9375 2 -0.9375 2 -2.75 1.4375 C-6.46021298 0.6954574 -9.64171149 2.35210574 -12.9375 4 C-13.9275 3.34 -14.9175 2.68 -15.9375 2 C-10.44395026 -1.21573643 -6.11165835 -2.08056454 0 0 Z " fill="#2F2D6F" transform="translate(379.9375,345)"/>
<path d="M0 0 C-0.92289944 3.18819807 -1.48262102 4.66440282 -4.3125 6.5 C-7 7 -7 7 -9.8125 5.625 C-10.534375 5.08875 -11.25625 4.5525 -12 4 C-11.67 3.34 -11.34 2.68 -11 2 C-10.34 2.33 -9.68 2.66 -9 3 C-9 3.66 -9 4.32 -9 5 C-7.01508358 4.73323796 -7.01508358 4.73323796 -5 4 C-4.67 3.01 -4.34 2.02 -4 1 C-2 0 -2 0 0 0 Z " fill="#B0DAEE" transform="translate(344,280)"/>
<path d="M0 0 C2.31 0.33 4.62 0.66 7 1 C6.01 1.495 6.01 1.495 5 2 C4.67 2.99 4.34 3.98 4 5 C0.37 4.67 -3.26 4.34 -7 4 C-7 4.66 -7 5.32 -7 6 C-8.32 5.67 -9.64 5.34 -11 5 C-7.68629 2.79086 -6.6553979 2.77518447 -2.8125 2.875 C-1.91144531 2.89304687 -1.01039063 2.91109375 -0.08203125 2.9296875 C0.60503906 2.95289063 1.29210937 2.97609375 2 3 C1.67 2.67 1.34 2.34 1 2 C0.67 1.34 0.34 0.68 0 0 Z " fill="#30276B" transform="translate(271,351)"/>
<path d="M0 0 C0 0.33 0 0.66 0 1 C-2.31 1 -4.62 1 -7 1 C-7 3.64 -7 6.28 -7 9 C-7.99 9 -8.98 9 -10 9 C-10.48339973 2.59495352 -10.48339973 2.59495352 -8.375 0 C-5.2448901 -1.31794101 -3.24216891 -0.81054223 0 0 Z " fill="#62BFE5" transform="translate(183,321)"/>
<path d="M0 0 C2.31 0.33 4.62 0.66 7 1 C7.625 4.375 7.625 4.375 8 8 C6 10 6 10 3.375 10.125 C2.59125 10.08375 1.8075 10.0425 1 10 C1.99 9.67 2.98 9.34 4 9 C4 8.34 4 7.68 4 7 C4.66 7 5.32 7 6 7 C6 5.68 6 4.36 6 3 C4.02 2.34 2.04 1.68 0 1 C0 0.67 0 0.34 0 0 Z " fill="#25B0E0" transform="translate(264,316)"/>
<path d="M0 0 C1.984375 1.359375 1.984375 1.359375 4 4 C4.51270905 7.42513915 4.37576221 10.79637621 4.25 14.25 C4.23195313 15.18585938 4.21390625 16.12171875 4.1953125 17.0859375 C4.14825673 19.39167015 4.08253713 21.69530945 4 24 C3.34 23.67 2.68 23.34 2 23 C2.03480469 21.26363281 2.03480469 21.26363281 2.0703125 19.4921875 C2.08908148 17.95313149 2.10728046 16.41406845 2.125 14.875 C2.14175781 14.11445313 2.15851563 13.35390625 2.17578125 12.5703125 C2.21546246 7.96729269 1.75907577 4.33535996 0 0 Z " fill="#2E2966" transform="translate(410,345)"/>
<path d="M0 0 C1.13480527 3.60993172 1.10015767 6.9842327 1.0625 10.75 C1.05347656 11.92046875 1.04445313 13.0909375 1.03515625 14.296875 C1.02355469 15.18890625 1.01195312 16.0809375 1 17 C-1.70309399 13.92603295 -2.39250711 12.01786274 -2.3125 7.9375 C-2.30863281 7.08027344 -2.30476563 6.22304688 -2.30078125 5.33984375 C-2 3 -2 3 0 0 Z " fill="#303170" transform="translate(332,349)"/>
<path d="M0 0 C3 1 3 1 4 3 C6.58605332 3.4683265 6.58605332 3.4683265 9.5625 3.625 C11.08037109 3.73714844 11.08037109 3.73714844 12.62890625 3.8515625 C13.80259766 3.92503906 13.80259766 3.92503906 15 4 C13 6 13 6 10.3984375 6.1953125 C9.40070313 6.17210937 8.40296875 6.14890625 7.375 6.125 C5.87066406 6.09792969 5.87066406 6.09792969 4.3359375 6.0703125 C3.56507812 6.04710937 2.79421875 6.02390625 2 6 C1.34 4.02 0.68 2.04 0 0 Z " fill="#42407F" transform="translate(113,347)"/>
<path d="M0 0 C0.33 0 0.66 0 1 0 C1 2.31 1 4.62 1 7 C1.99 6.67 2.98 6.34 4 6 C6.33299825 5.96045766 8.66708189 5.95598268 11 6 C7.66666667 7.66666667 4.33333333 9.33333333 1 11 C-0.20272819 8.59454362 -0.10071472 7.05003047 -0.0625 4.375 C-0.05347656 3.55773437 -0.04445313 2.74046875 -0.03515625 1.8984375 C-0.02355469 1.27195312 -0.01195312 0.64546875 0 0 Z " fill="#322D6B" transform="translate(397,338)"/>
<path d="M0 0 C0.33 0 0.66 0 1 0 C1.33 2.64 1.66 5.28 2 8 C4.64 7.67 7.28 7.34 10 7 C9.67 7.99 9.34 8.98 9 10 C5.44069018 10.32357362 3.58208265 10.3880551 0.5625 8.375 C-1 6 -1 6 -0.75 2.75 C-0.5025 1.8425 -0.255 0.935 0 0 Z " fill="#4EB2DD" transform="translate(185,303)"/>
<path d="M0 0 C3.3 0 6.6 0 10 0 C10 1.98 10 3.96 10 6 C9.01 6.33 8.02 6.66 7 7 C7.66 5.35 8.32 3.7 9 2 C7.02 2 5.04 2 3 2 C2.67 3.32 2.34 4.64 2 6 C1.34 6 0.68 6 0 6 C0 4.02 0 2.04 0 0 Z " fill="#363273" transform="translate(265,358)"/>
<path d="M0 0 C1.98 0 3.96 0 6 0 C6 2.97 6 5.94 6 9 C5.01 8.67 4.02 8.34 3 8 C3.66 8 4.32 8 5 8 C4.67 7.01 4.34 6.02 4 5 C2.02 5 0.04 5 -2 5 C-2 4.34 -2 3.68 -2 3 C-1.01 2.67 -0.02 2.34 1 2 C0.67 1.34 0.34 0.68 0 0 Z " fill="#3D3672" transform="translate(205,355)"/>
<path d="M0 0 C1.4540625 0.0309375 1.4540625 0.0309375 2.9375 0.0625 C2.6075 1.3825 2.2775 2.7025 1.9375 4.0625 C0.2875 4.3925 -1.3625 4.7225 -3.0625 5.0625 C-3.625 3.125 -3.625 3.125 -4.0625 1.0625 C-3.0625 0.0625 -3.0625 0.0625 0 0 Z " fill="#21155A" transform="translate(188.0625,363.9375)"/>
<path d="M0 0 C2.74086056 -0.22223194 4.43963721 -0.34781139 6.8125 1.125 C8.52849028 3.83445834 8.333728 5.86295684 8 9 C7.34 9.66 6.68 10.32 6 11 C6 8.36 6 5.72 6 3 C5.38125 2.87625 4.7625 2.7525 4.125 2.625 C2 2 2 2 0 0 Z " fill="#3BB4E2" transform="translate(228,314)"/>
<path d="M0 0 C0.33 0 0.66 0 1 0 C1.08096803 1.45742463 1.13917774 2.91612807 1.1875 4.375 C1.22230469 5.18710937 1.25710937 5.99921875 1.29296875 6.8359375 C1.19628906 7.55007813 1.09960938 8.26421875 1 9 C-2 11 -2 11 -5 11 C-4.67 9.35 -4.34 7.7 -4 6 C-2.02 6.495 -2.02 6.495 0 7 C-0.185625 6.030625 -0.37125 5.06125 -0.5625 4.0625 C-0.706875 3.051875 -0.85125 2.04125 -1 1 C-0.67 0.67 -0.34 0.34 0 0 Z " fill="#0BC8F4" transform="translate(220,272)"/>
<path d="M0 0 C2.40072955 2.88087546 4.47291037 5.56404834 6 9 C1.25 8.125 1.25 8.125 -1 7 C-0.67 4.69 -0.34 2.38 0 0 Z " fill="#A5D8ED" transform="translate(337,270)"/>
<path d="M0 0 C1.65 0.33 3.3 0.66 5 1 C5 1.99 5 2.98 5 4 C4.34 4 3.68 4 3 4 C2.67 4.66 2.34 5.32 2 6 C2 5.34 2 4.68 2 4 C0.68 3.67 -0.64 3.34 -2 3 C-1.34 2.01 -0.68 1.02 0 0 Z " fill="#1C0449" transform="translate(154,356)"/>
<path d="M0 0 C0.66 0.99 1.32 1.98 2 3 C1.57421875 4.97265625 1.57421875 4.97265625 0.6875 7.0625 C0.26017578 8.10083984 0.26017578 8.10083984 -0.17578125 9.16015625 C-0.75511692 10.45336525 -1.36627777 11.73255553 -2 13 C-2.66 13 -3.32 13 -4 13 C-3.52140759 11.39566191 -3.04210442 9.79153584 -2.5625 8.1875 C-2.29566406 7.29417969 -2.02882813 6.40085938 -1.75390625 5.48046875 C-1.19612127 3.64526945 -0.60655425 1.81966274 0 0 Z " fill="#ACD0EB" transform="translate(289,146)"/>
<path d="M0 0 C0.99 0 1.98 0 3 0 C2.42655063 2.86724686 2.1385485 3.8614515 0 6 C-0.99 6 -1.98 6 -3 6 C-2.42655063 3.13275314 -2.1385485 2.1385485 0 0 Z " fill="#3ACBF8" transform="translate(276,295)"/>
<path d="M0 0 C0.79921875 0.01804687 1.5984375 0.03609375 2.421875 0.0546875 C3.02515625 0.07789063 3.6284375 0.10109375 4.25 0.125 C4.25 0.455 4.25 0.785 4.25 1.125 C-0.205 1.62 -0.205 1.62 -4.75 2.125 C-5.08 3.115 -5.41 4.105 -5.75 5.125 C-6.74 4.135 -7.73 3.145 -8.75 2.125 C-5.68753253 0.34090198 -3.52920727 -0.10380021 0 0 Z " fill="#33306F" transform="translate(180.75,343.875)"/>
<path d="M0 0 C1.65 0.33 3.3 0.66 5 1 C3.35 2.98 1.7 4.96 0 7 C-0.66 6.67 -1.32 6.34 -2 6 C-1.49396008 3.83125748 -1.00016187 2.00032373 0 0 Z " fill="#333678" transform="translate(143,361)"/>
<path d="M0 0 C1.21236328 0.04060547 1.21236328 0.04060547 2.44921875 0.08203125 C3.06410156 0.11683594 3.67898437 0.15164063 4.3125 0.1875 C1.53016186 2.96983814 -0.84662461 2.78319733 -4.6875 3.1875 C-5.6775 3.1875 -6.6675 3.1875 -7.6875 3.1875 C-5.26849268 0.20484049 -3.789448 -0.16475861 0 0 Z " fill="#262064" transform="translate(206.6875,343.8125)"/>
<path d="M0 0 C0.99 0 1.98 0 3 0 C3.66 1.98 4.32 3.96 5 6 C3.35 5.67 1.7 5.34 0 5 C-0.33 4.01 -0.66 3.02 -1 2 C-0.67 1.34 -0.34 0.68 0 0 Z " fill="#1C0447" transform="translate(97,337)"/>
<path d="M0 0 C1.98 0 3.96 0 6 0 C6.33 2.31 6.66 4.62 7 7 C6.01 7.495 6.01 7.495 5 8 C5.33 6.68 5.66 5.36 6 4 C4.68 4 3.36 4 2 4 C2 3.34 2 2.68 2 2 C1.34 1.34 0.68 0.68 0 0 Z " fill="#0BC1EE" transform="translate(176,322)"/>
<path d="M0 0 C2.5 1.3125 2.5 1.3125 5 3 C5 3.99 5 4.98 5 6 C3.35 6.33 1.7 6.66 0 7 C0.66 5.35 1.32 3.7 2 2 C1.34 2 0.68 2 0 2 C0 1.34 0 0.68 0 0 Z " fill="#45457A" transform="translate(380,361)"/>
<path d="M0 0 C2.31 0 4.62 0 7 0 C7 1.32 7 2.64 7 4 C4.36 4.33 1.72 4.66 -1 5 C-1 4.34 -1 3.68 -1 3 C0.65 2.67 2.3 2.34 4 2 C2.68 1.34 1.36 0.68 0 0 Z " fill="#515184" transform="translate(149,360)"/>
<path d="M0 0 C1.46366342 0.39753821 2.9208935 0.81881384 4.375 1.25 C5.18710938 1.48203125 5.99921875 1.7140625 6.8359375 1.953125 C9.45785454 3.2214892 9.99382318 4.32423308 11 7 C10.29875 6.54625 9.5975 6.0925 8.875 5.625 C5.97015409 3.98313057 3.1860652 2.96322901 0 2 C0 1.34 0 0.68 0 0 Z " fill="#343373" transform="translate(151,353)"/>
<path d="M0 0 C1.32 0.66 2.64 1.32 4 2 C3.25 3.9375 3.25 3.9375 2 6 C-0.125 6.75 -0.125 6.75 -2 7 C-2 6.34 -2 5.68 -2 5 C-1.34 5 -0.68 5 0 5 C0 3.35 0 1.7 0 0 Z " fill="#88BBE6" transform="translate(300,117)"/>
<path d="M0 0 C0.33 0 0.66 0 1 0 C1 2.64 1 5.28 1 8 C1.66 8 2.32 8 3 8 C3 9.32 3 10.64 3 12 C2.01 12 1.02 12 0 12 C0 8.04 0 4.08 0 0 Z " fill="#82D1FB" transform="translate(261,381)"/>
<path d="M0 0 C0.33 0.99 0.66 1.98 1 3 C3.31 3.33 5.62 3.66 8 4 C8 4.66 8 5.32 8 6 C2.25 6.125 2.25 6.125 0 5 C0 3.35 0 1.7 0 0 Z " fill="#403972" transform="translate(233,359)"/>
<path d="M0 0 C1.32 0.99 2.64 1.98 4 3 C3.6875 4.9375 3.6875 4.9375 3 7 C2.01 7.33 1.02 7.66 0 8 C0 5.36 0 2.72 0 0 Z " fill="#312F6E" transform="translate(187,345)"/>
<path d="M0 0 C0.66 0 1.32 0 2 0 C1.53199289 4.05606165 1.12046792 7.46588679 -1 11 C-1.125 3.375 -1.125 3.375 0 0 Z " fill="#2A4C8A" transform="translate(224,146)"/>
<path d="M0 0 C0.99 0.33 1.98 0.66 3 1 C3 1.66 3 2.32 3 3 C1.02 3.66 -0.96 4.32 -3 5 C-3 5.66 -3 6.32 -3 7 C-3.66 6.67 -4.32 6.34 -5 6 C-3.86525052 2.59575156 -3.03188696 1.78346291 0 0 Z " fill="#7CC7F3" transform="translate(254,123)"/>
<path d="M0 0 C0.66 0.33 1.32 0.66 2 1 C2 1.99 2 2.98 2 4 C1.34 4 0.68 4 0 4 C0.33 5.32 0.66 6.64 1 8 C0.01 8 -0.98 8 -2 8 C-2.125 5.125 -2.125 5.125 -2 2 C-1.34 1.34 -0.68 0.68 0 0 Z " fill="#251D64" transform="translate(120,356)"/>
<path d="M0 0 C0.66 0 1.32 0 2 0 C2.99 2.64 3.98 5.28 5 8 C1.125 6.125 1.125 6.125 0 5 C-0.04063832 3.33382885 -0.042721 1.66611905 0 0 Z " fill="#90C2E5" transform="translate(323,300)"/>
<path d="M0 0 C1.5 1.3125 1.5 1.3125 3 3 C3 3.99 3 4.98 3 6 C3.66 6.33 4.32 6.66 5 7 C4.01 8.485 4.01 8.485 3 10 C0.96564469 6.27034861 0 4.33094958 0 0 Z " fill="#9CCEE8" transform="translate(287,278)"/>
<path d="M0 0 C0.33 0 0.66 0 1 0 C1.25 2.3125 1.25 2.3125 1 5 C-1 6.8125 -1 6.8125 -3 8 C-3.33 6.35 -3.66 4.7 -4 3 C-2.68 3 -1.36 3 0 3 C0 2.01 0 1.02 0 0 Z " fill="#69C0EF" transform="translate(287,130)"/>
<path d="M0 0 C0.66 1.32 1.32 2.64 2 4 C-1 6 -1 6 -3.1875 5.625 C-3.785625 5.41875 -4.38375 5.2125 -5 5 C-3.35 3.35 -1.7 1.7 0 0 Z " fill="#5B9FDA" transform="translate(249,127)"/>
<path d="M0 0 C2.31 0.33 4.62 0.66 7 1 C4.03312999 2.64826111 1.34373475 3.44271087 -2 4 C-1.34 2.68 -0.68 1.36 0 0 Z " fill="#4DB3E2" transform="translate(243,257)"/>
</svg>
